<svg width="390" height="761" viewBox="0 0 390 761" fill="none" xmlns="http://www.w3.org/2000/svg">
<path d="M0 0H390V584H0V0Z" fill="url(#paint0_linear_271_1611)"/>
<g style="mix-blend-mode:multiply">
<path d="M194.652 562.308C288.762 562.308 365.054 485.981 365.054 391.826C365.054 297.672 288.762 221.344 194.652 221.344C100.543 221.344 24.2515 297.672 24.2515 391.826C24.2515 485.981 100.543 562.308 194.652 562.308Z" stroke="url(#paint1_linear_271_1611)" stroke-opacity="0.8" stroke-width="8" stroke-miterlimit="10"/>
<path d="M194.653 660.517C342.976 660.517 463.216 540.22 463.216 391.826C463.216 243.432 342.976 123.136 194.653 123.136C46.3292 123.136 -73.9106 243.432 -73.9106 391.826C-73.9106 540.22 46.3292 660.517 194.653 660.517Z" stroke="url(#paint2_linear_271_1611)" stroke-opacity="0.8" stroke-width="6" stroke-miterlimit="10"/>
<path d="M194.652 759C397.341 759 561.652 594.611 561.652 391.826C561.652 189.042 397.341 24.6523 194.652 24.6523C-8.03616 24.6523 -172.348 189.042 -172.348 391.826C-172.348 594.611 -8.03616 759 194.652 759Z" stroke="url(#paint3_linear_271_1611)" stroke-opacity="0.8" stroke-width="4" stroke-miterlimit="10"/>
<g style="mix-blend-mode:multiply" clip-path="url(#clip0_271_1611)">
<path d="M266.868 30.3285L261.92 24.037L269.211 27.4411L267.519 19.5761L272.593 25.8702L274.289 18L275.984 25.8702L281.058 19.5761L279.366 27.4411L286.657 24.037L281.709 30.3285H289.781L282.491 33.7404C282.155 34.1783 289.339 36.9897 289.779 37.5404L281.709 37.4093L286.394 43.7007C286.089 43.9892 279.816 40.1419 279.366 40.5563C279.824 42.8982 280.629 45.29 281.071 47.6214C281.124 47.8915 281.415 48.4816 280.931 48.4186C279.632 46.4701 278.09 44.2252 276.577 42.4603C276.465 42.3291 276.385 41.7286 275.984 42.1272C275.671 42.4393 274.817 49.0192 274.289 49.9974C273.76 49.0192 272.906 42.4393 272.593 42.1272C272.474 42.0092 271.961 42.0721 272 42.4603L267.391 48.4186L269.209 40.2914L262.183 43.6981L266.868 37.4067L258.796 37.543C259.236 36.9923 266.42 34.181 266.084 33.743L258.796 30.3285H266.868Z" fill="#EDEDED"/>
</g>
</g>
<g style="mix-blend-mode:multiply">
<ellipse cx="328.763" cy="508" rx="9.99527" ry="10" fill="#EDEDED"/>
</g>
<g style="mix-blend-mode:multiply">
<ellipse cx="17.9098" cy="143" rx="7.99621" ry="8" fill="#EDEDED"/>
</g>
<ellipse cx="42.898" cy="684" rx="5.99716" ry="6" fill="#EDEDED"/>
<g style="mix-blend-mode:multiply">
<path d="M77.9336 486.067C76.567 488.352 74.9376 490.509 74.1301 493.09C74.326 493.969 80.901 495.317 81.9976 495.504L74.111 497.776C74.0226 497.893 74.8564 499.977 75.026 500.323C75.3151 500.918 78.1248 504.974 77.9336 505.179C75.6066 503.745 73.2963 501.858 70.5344 501.358L68.5012 509.002L66.2052 501.375C65.4335 500.818 60.1128 504.517 59.064 504.94C58.7797 504.656 63.0921 499.021 62.6286 497.798L55 495.501C56.0919 495.272 62.3849 494.044 62.6119 493.088C62.8508 492.082 59.4367 487.205 58.8203 486.065C59.0281 485.871 63.0826 488.681 63.6751 488.973C64.3488 489.303 65.2567 489.647 65.9973 489.773C66.8766 489.362 67.8394 483.974 68.1357 482.836C68.2217 482.507 68.1285 482.093 68.6111 482C68.4032 483.125 70.1545 489.697 70.9071 489.869L73.0765 488.973L77.9312 486.065L77.9336 486.067Z" fill="#EDEDED"/>
</g>
<g style="mix-blend-mode:multiply">
<path d="M366 162.343L358.869 164.209C349.954 167.132 349.46 172.75 347.502 181C346.212 175.935 345.635 169.817 341.029 166.517C337.516 163.999 333.079 163.512 329 162.5C334.317 161.03 340.878 160.464 344.005 155.239C346.041 151.834 346.454 147.752 347.502 144C348.562 147.487 348.945 151.317 350.668 154.587C353.667 160.274 360.264 161.154 365.997 162.34L366 162.343Z" fill="#E9E9E9"/>
</g>
<g style="mix-blend-mode:multiply">
<path d="M363.797 150.297C363.899 151.194 363.757 150.821 363.304 150.964C361.171 151.644 360.212 152.068 360.156 154.629C359.223 153.929 359.369 152.408 358.347 151.621C357.659 151.091 356.697 150.964 355.857 150.961C355.615 149.947 356.951 150.317 357.702 149.987C359.428 149.227 359.144 148.006 359.994 146.629C360.291 148.823 361.442 150.384 363.797 150.297Z" fill="#E9E9E9"/>
</g>
<g style="mix-blend-mode:multiply">
<path d="M360.189 170.524C360.126 173.044 361.633 173.848 363.857 174.343C361.52 175.219 360.306 175.77 360.026 178.493C359.322 177.633 359.542 176.736 358.705 175.823C357.728 174.758 356.618 175.176 355.857 174.18C358.539 174.044 358.859 173.257 359.519 171.012C359.662 170.528 359.322 170.431 360.193 170.524H360.189Z" fill="#E9E9E9"/>
</g>
<g style="mix-blend-mode:multiply">
<path d="M339.627 174.195C338.907 175.206 337.694 174.766 336.774 175.839C336.137 176.583 335.947 177.57 335.957 178.527C334.957 177.767 335.377 176.656 334.307 175.679C333.39 174.842 332.49 175.062 331.627 174.359C334.357 174.079 334.914 172.865 335.794 170.527C336.094 172.721 337.254 174.282 339.624 174.195H339.627Z" fill="#E9E9E9"/>
</g>
<defs>
<linearGradient id="paint0_linear_271_1611" x1="195" y1="0" x2="195" y2="542.031" gradientUnits="userSpaceOnUse">
<stop stop-color="white"/>
<stop offset="0.455" stop-color="#F7FEFB"/>
<stop offset="1" stop-color="#CCF8E1"/>
</linearGradient>
<linearGradient id="paint1_linear_271_1611" x1="194.652" y1="221.344" x2="194.652" y2="562.308" gradientUnits="userSpaceOnUse">
<stop stop-color="#E9E9E9" stop-opacity="0.3"/>
<stop offset="1" stop-color="#FAFAFA"/>
</linearGradient>
<linearGradient id="paint2_linear_271_1611" x1="194.653" y1="123.136" x2="194.653" y2="660.517" gradientUnits="userSpaceOnUse">
<stop stop-color="#E9E9E9" stop-opacity="0.3"/>
<stop offset="1" stop-color="#FAFAFA"/>
</linearGradient>
<linearGradient id="paint3_linear_271_1611" x1="194.652" y1="24.6523" x2="194.652" y2="759" gradientUnits="userSpaceOnUse">
<stop stop-color="#E9E9E9" stop-opacity="0.3"/>
<stop offset="1" stop-color="#FAFAFA"/>
</linearGradient>
<clipPath id="clip0_271_1611">
<rect width="30.9853" height="32" fill="white" transform="translate(258.796 18)"/>
</clipPath>
</defs>
</svg>
