<svg width="86" height="89" viewBox="0 0 86 89" fill="none" xmlns="http://www.w3.org/2000/svg">
<path d="M42.6346 88.9845C40.2561 88.6331 38.418 86.2841 38.8471 83.839L49.5011 58.4342H29.2033C29.009 58.4342 27.8389 57.801 27.5879 57.6192C25.7073 56.2363 25.3288 53.5155 26.679 51.6137C38.7945 39.6069 50.5355 27.1241 62.8919 15.4216C65.975 14.0673 69.2037 16.5247 68.896 19.8481L61.8211 45.3999H77.8759C78.3212 45.3999 79.7767 46.025 80.1856 46.3293C82.0561 47.7204 82.3678 50.5659 81.0055 52.4247C68.9305 64.405 57.2137 76.8244 44.9059 88.5249L43.6448 88.9845C43.3188 88.9538 42.9464 89.0315 42.6346 88.9845Z" fill="#004739"/>
<path d="M75.9916 18.7989C75.4101 18.7095 74.9608 18.1123 75.0657 17.4907L77.67 11.0319H72.7084C72.6609 11.0319 72.3748 10.8709 72.3135 10.8247C71.8538 10.4731 71.7612 9.78133 72.0913 9.29784C75.0529 6.24525 77.9229 3.07166 80.9434 0.0964539C81.697 -0.247858 82.4862 0.376889 82.411 1.22183L80.6816 7.71805H84.6061C84.715 7.71805 85.0707 7.87697 85.1707 7.95435C85.6279 8.30801 85.7041 9.03142 85.3711 9.50401C82.4194 12.5498 79.5553 15.7073 76.5468 18.682L76.2385 18.7989C76.1588 18.7911 76.0678 18.8108 75.9916 18.7989Z" fill="#12F280"/>
<path d="M3.65622 38.6586C3.21911 38.594 2.88134 38.1623 2.9602 37.713L4.91805 33.0444H1.18798C1.15227 33.0444 0.937254 32.9281 0.891125 32.8947C0.545536 32.6405 0.475971 32.1405 0.724096 31.7911C2.95053 29.5846 5.10814 27.2907 7.37884 25.1401C7.9454 24.8913 8.53874 25.3428 8.4822 25.9536L7.18205 30.6492H10.1324C10.2142 30.6492 10.4817 30.764 10.5569 30.82C10.9006 31.0756 10.9579 31.5985 10.7075 31.9401C8.48852 34.1417 6.33537 36.4239 4.0736 38.5741L3.84185 38.6586C3.78195 38.6529 3.7135 38.6672 3.65622 38.6586Z" fill="#004739"/>
</svg>
