<svg width="23" height="25" viewBox="0 0 23 25" fill="none" xmlns="http://www.w3.org/2000/svg">
<g style="mix-blend-mode:overlay" clip-path="url(#clip0_23_412)">
<path d="M10.8532 5.98541C15.3415 5.61452 18.9054 8.12575 20.6638 12.069C21.5977 14.1635 22.2863 17.0518 20.2544 18.745C18.1912 20.4645 14.9828 19.5311 14.0443 17.1008C13.5732 15.8815 14.0939 14.3268 12.4563 13.7818C10.9876 13.293 9.86131 14.0687 9.6255 15.5204C9.10054 18.7533 11.5993 22.3447 14.8375 23.0535C15.4911 23.1967 16.0709 23.153 16.6769 23.2462C17.674 23.3992 17.6929 25.0378 16.2607 24.993C11.2056 24.8348 7.02422 20.071 7.90526 15.1103C8.68852 10.6993 14.883 10.9615 15.5528 15.05C15.6793 15.8222 15.4994 16.293 16.0542 16.9725C16.7386 17.8106 17.8414 18.1253 18.8426 17.6112C20.8635 16.5738 19.3253 12.989 18.45 11.5786C15.9627 7.56942 11.4456 6.54587 7.37298 9.03391C3.54452 11.3731 2.72728 15.4266 3.73171 19.5533C3.83001 19.9566 4.15419 20.7257 4.17354 21.0718C4.22007 21.91 3.1074 22.3535 2.56885 21.6241C2.32205 21.2897 2.0716 20.2389 1.96807 19.8C1.09592 16.1076 1.53147 12.306 4.15889 9.41459C5.74528 7.66884 8.45898 6.18425 10.8527 5.98644L10.8532 5.98541Z" fill="white"/>
<path d="M10.9572 8.96664C14.028 8.7302 16.7244 9.97938 17.9673 12.8234C18.3113 13.6105 18.714 15.126 18.5811 15.9646C18.474 16.642 17.5568 16.8846 17.0695 16.3813C16.7187 16.0192 16.8625 15.6257 16.8044 15.2033C16.3652 12.0275 14.0191 10.3307 10.792 10.7557C5.23594 11.4877 5.68456 20.0995 9.11825 22.9317C9.46543 23.2181 10.0291 23.4123 10.1504 23.8676C10.3261 24.528 9.80634 25.0931 9.11982 24.986C8.43329 24.8788 7.0503 23.3741 6.64821 22.7951C3.48746 18.2409 4.08563 9.49465 10.9582 8.96561L10.9572 8.96664Z" fill="white"/>
<path d="M0.239357 11.0411C-0.259984 10.5147 0.132168 9.93104 0.420792 9.43085C2.18548 6.37205 5.96321 3.87988 9.45389 3.21846C14.7098 2.22221 20.0441 4.69789 22.5586 9.32834C22.8775 9.9161 23.4051 10.8459 22.4822 11.224C21.5594 11.6021 21.3277 10.7084 20.9936 10.1505C17.0397 3.55432 8.70723 2.98614 3.4022 8.41039C2.60953 9.22068 2.266 9.98667 1.64169 10.8397C1.30287 11.3028 0.67543 11.5017 0.239357 11.0416V11.0411Z" fill="white"/>
<path d="M10.5917 0.0216272C13.1402 -0.116426 17.2698 0.393032 19.3639 1.93737C19.8962 2.3299 19.9866 3.07786 19.3843 3.44205C18.7249 3.84076 18.1712 3.24321 17.5945 2.96092C14.4065 1.40061 9.60346 1.33983 6.3418 2.72191C5.85605 2.92744 5.23593 3.38281 4.81188 3.52705C4.05267 3.78512 3.35046 3.06086 3.69555 2.32475C3.83411 2.02907 4.18966 1.85238 4.46365 1.69372C6.22101 0.675835 8.56243 0.131349 10.5917 0.0216272Z" fill="white"/>
<path d="M11.4231 14.9262C11.9794 14.8129 12.5028 15.0916 12.5802 15.6644C12.6503 16.1821 12.6194 16.6452 12.7564 17.1871C13.5496 20.318 17.0225 20.8594 19.8214 20.9182C20.8128 21.3457 20.4776 22.6433 19.3927 22.6299C15.3378 22.5815 11.182 20.9769 10.8636 16.4304C10.8286 15.9276 10.7606 15.0607 11.4226 14.9262H11.4231Z" fill="white"/>
</g>
<defs>
<clipPath id="clip0_23_412">
<rect width="23" height="25" fill="white"/>
</clipPath>
</defs>
</svg>
