<svg width="20" height="24" viewBox="0 0 20 24" fill="none" xmlns="http://www.w3.org/2000/svg">
<g style="mix-blend-mode:overlay" clip-path="url(#clip0_23_457)">
<path d="M19.9999 14.7932C19.844 16.6114 17.8495 17.5478 16.3632 16.3418C15.5076 15.6473 14.773 14.6285 13.8954 13.9514C13.0826 14.6492 12.369 15.5635 11.5601 16.2505C10.5891 17.0749 9.43643 17.074 8.46637 16.2505C7.63741 15.5466 6.94859 14.6238 6.09627 13.9514C5.2673 14.6638 4.53892 15.5965 3.71329 16.2976C2.1712 17.6067 0.161955 16.6387 0.0270513 14.6756C-0.152661 12.0607 0.513751 9.92396 3.51976 9.76633L8.91922 9.76821V7.60791H11.1068V9.76821C13.1089 9.79597 15.1195 9.70751 17.1169 9.82091C18.76 10.0529 19.8807 11.4057 19.9994 13.0089V14.7937L19.9999 14.7932Z" fill="white"/>
<path d="M19.9522 17.8932V23.1765C19.9522 23.4866 19.3121 24.0141 18.9774 23.9986L1.0944 24.0005C0.665852 23.9685 0.256853 23.6767 0.119089 23.273C0.0995449 23.2156 0.0266113 22.93 0.0266113 22.8947V17.8932C0.33932 17.9948 0.605789 18.1957 0.917068 18.3054C1.81134 18.6202 2.80667 18.5981 3.68759 18.2447C4.6853 17.8442 5.32168 16.9483 6.09011 16.2505C6.68883 16.7987 7.22844 17.481 7.92489 17.9129C9.00554 18.5835 10.3522 18.6719 11.5344 18.1981C12.513 17.8057 13.1375 16.9389 13.8892 16.251C14.7349 17.058 15.4776 18.0052 16.6502 18.3604C17.5879 18.6447 18.6275 18.5576 19.5089 18.1369C19.6538 18.0678 19.7906 17.9275 19.9522 17.8937V17.8932Z" fill="white"/>
<path d="M10.0601 -1.77299e-05L12.005 3.36348C13.0899 5.76612 9.91991 7.65115 8.30012 5.70683C6.78711 3.89097 9.23729 1.74808 9.92563 0.0771527L10.0605 -0.000488281L10.0601 -1.77299e-05Z" fill="white"/>
</g>
<defs>
<clipPath id="clip0_23_457">
<rect width="20" height="24" fill="white"/>
</clipPath>
</defs>
</svg>
