<svg width="20" height="25" viewBox="0 0 20 25" fill="none" xmlns="http://www.w3.org/2000/svg">
<g style="mix-blend-mode:overlay" clip-path="url(#clip0_23_420)">
<path d="M14.9509 0C15.2847 0.0921875 15.6275 0.125 15.9613 0.222396C17.8619 0.777604 19.4226 2.4849 19.8572 4.48698C19.9158 4.75625 19.9223 5.03698 20.0005 5.29948V19.6406C19.6903 22.5328 17.4975 24.7771 14.6782 24.9432C11.6199 25.1234 8.39966 24.801 5.32428 24.9432C2.48747 24.7766 0.256115 22.488 0.00250601 19.5625L0 5.4276C0.167402 2.67292 2.38823 0.242187 5.05162 0H14.9509ZM7.60776 4.8776C7.43835 4.08594 6.51213 3.86094 6.09964 4.59688C6.04751 4.68958 6.00942 4.90521 5.99038 4.925C5.97033 4.94583 5.56034 5.05729 5.44908 5.11615C3.76554 6.00313 4.22965 8.67917 6.08861 8.92396C6.44647 8.97083 7.24188 8.84167 7.47644 9.04062C7.71101 9.23958 7.59974 9.52083 7.35365 9.64167C6.63442 9.76146 5.73577 9.55573 5.03809 9.6776C4.40507 9.78802 4.1675 10.6865 4.67522 11.1208C5.04461 11.4365 5.55784 11.2932 5.99439 11.3349C6.16279 12.1245 7.08951 12.3531 7.50251 11.6156C7.55463 11.5229 7.59272 11.3073 7.61177 11.2875C7.63081 11.2677 8.01874 11.1646 8.11999 11.1141C9.51032 10.4187 9.56796 8.33125 8.21622 7.54531C7.46792 7.11042 7.04741 7.3901 6.32919 7.2724C5.89415 7.20104 5.91018 6.64635 6.28709 6.55885C7.06646 6.3776 9.37751 7.07812 9.19707 5.59115C9.10034 4.79427 8.17813 4.86667 7.60776 4.87813V4.8776ZM11.438 5.41615C10.5864 5.63594 10.5864 6.83437 11.438 7.05417C12.5185 6.97135 13.8728 7.21042 14.9213 7.06198C15.8119 6.93594 15.816 5.5651 14.9639 5.41615C13.942 5.2375 12.5035 5.51354 11.4385 5.41615H11.438ZM11.438 8.74167C10.5864 8.96146 10.5864 10.1599 11.438 10.3797C12.5185 10.2969 13.8728 10.5359 14.9213 10.3875C15.8119 10.2615 15.816 8.89062 14.9639 8.74167C13.942 8.56302 12.5035 8.83906 11.4385 8.74167H11.438ZM5.03859 15.3927C4.14194 15.6276 4.2071 16.9125 5.1263 17.0432H14.8757C15.843 16.901 15.8435 15.5224 14.8757 15.3802L5.03859 15.3927ZM5.03859 18.7182C4.14194 18.9531 4.2071 20.238 5.1263 20.3687H14.8757C15.843 20.2266 15.8435 18.8479 14.8757 18.7057L5.03859 18.7182Z" fill="white"/>
</g>
<defs>
<clipPath id="clip0_23_420">
<rect width="20" height="25" fill="white"/>
</clipPath>
</defs>
</svg>
