<svg width="28" height="18" viewBox="0 0 28 18" fill="none" xmlns="http://www.w3.org/2000/svg">
<g style="mix-blend-mode:overlay" clip-path="url(#clip0_23_461)">
<path d="M28.0001 13.0855V14.0671C27.81 14.5057 27.5805 14.6774 27.0974 14.7206C25.8645 14.831 23.5821 14.8201 22.3405 14.7233C21.1771 14.6325 21.4417 13.8248 21.3233 12.9569C21.2543 12.4495 21.1212 11.9529 20.9624 11.4678C21.4707 10.0066 22.7606 8.65259 22.0151 7.03223C22.8219 6.26389 23.5706 5.41461 24.4125 4.69385C26.4527 6.94747 27.7859 9.89178 27.9436 12.9542L28.0006 13.086L28.0001 13.0855Z" fill="white"/>
<path d="M13.1852 0L13.1775 6.58915C11.8033 6.7822 10.543 7.29187 9.44042 8.12529L4.76782 3.51633C7.01019 1.4995 9.96842 0.235151 12.999 0.0574206L13.131 0H13.1857H13.1852Z" fill="white"/>
<path d="M14.88 7.15909e-05C14.8871 7.15909e-05 14.9386 0.0514767 15.012 0.0569454C18.0847 0.289362 20.9613 1.45145 23.2426 3.5164L20.8912 5.86244C20.7658 5.91822 20.2635 5.69182 20.0455 5.66995C18.6806 5.53269 17.8995 6.54985 16.7674 7.08195L14.823 6.56024L14.8252 7.15909e-05C14.8433 0.00116532 14.8619 -0.00102214 14.88 7.15909e-05Z" fill="white"/>
<path d="M19.5662 7.31872C20.2224 7.18091 20.7553 7.67145 20.5822 8.33206C19.3071 10.8132 18.3207 13.6076 17.0051 16.0499C14.3963 20.8941 7.82857 15.6207 12.074 12.0584L19.5662 7.31872Z" fill="white"/>
<path d="M3.59895 4.69312L8.24362 9.32614C7.25718 10.5642 6.8201 11.8833 6.62566 13.4402C6.58458 13.7694 6.69631 14.0139 6.48599 14.3365C6.2795 14.6526 5.96894 14.6991 5.61621 14.7231C4.33509 14.8106 2.23897 14.8221 0.964968 14.7231C0.564585 14.692 0.194326 14.57 0.0617774 14.1517C-0.115684 13.5917 0.129147 12.0183 0.246359 11.3851C0.705896 8.90396 1.91033 6.553 3.59841 4.69312H3.59895Z" fill="white"/>
</g>
<defs>
<clipPath id="clip0_23_461">
<rect width="28" height="18" fill="white"/>
</clipPath>
</defs>
</svg>
