<svg width="24" height="24" viewBox="0 0 24 24" fill="none" xmlns="http://www.w3.org/2000/svg">
<g style="mix-blend-mode:overlay" clip-path="url(#clip0_23_467)">
<path d="M7.96771 0L22.2137 2.88751C22.4167 2.98333 22.4843 3.13221 22.5716 3.32665L22.5937 22.5938H23.4608C23.4795 22.5938 23.7614 22.7535 23.79 22.7803C23.8905 22.8737 23.8966 23.0217 24 23.1095V23.4843C23.8971 23.5721 23.891 23.7201 23.79 23.8135C23.7614 23.8403 23.4795 24 23.4608 24H16.9213V21.0467C18.4093 20.8063 19.6084 19.4203 19.7282 17.9234C19.8555 16.3313 18.7555 13.7725 17.3107 12.9933C14.6325 11.5486 12.5359 15.7569 12.7087 17.9234C12.8285 19.425 14.0224 20.7941 15.5156 21.0467V24H11.2968V11.7422C11.2968 10.9522 10.24 9.89072 9.44534 9.89072H7.07812V0.539178C7.07812 0.348493 7.42053 0.0652838 7.59384 0H7.96865H7.96771ZM10.4397 4.27632C9.71024 4.45667 9.72152 5.51295 10.4397 5.66137C10.7994 5.73558 13.1296 5.73041 13.5199 5.66935C14.2737 5.55147 14.3071 4.45526 13.5588 4.27632H10.4392H10.4397ZM10.4397 7.08869C9.71024 7.26904 9.72152 8.32532 10.4397 8.47374C10.7994 8.54795 13.1296 8.54278 13.5199 8.48172C14.2737 8.36384 14.3071 7.26763 13.5588 7.08869H10.4392H10.4397ZM16.0646 7.08869C15.3352 7.26904 15.3465 8.32532 16.0646 8.47374C16.4244 8.54795 18.7545 8.54278 19.1448 8.48172C19.8987 8.36384 19.932 7.26763 19.1838 7.08869H16.0642H16.0646ZM16.0646 9.90106C15.3371 10.049 15.3469 11.1382 16.0646 11.2861C16.4244 11.3603 18.7545 11.3551 19.1448 11.2941C19.8982 11.1762 19.9283 10.0523 19.1838 9.90106C18.8625 9.83577 16.3859 9.83577 16.0642 9.90106H16.0646Z" fill="white"/>
<path d="M4.21774 11.2967H9.35093C9.36972 11.2967 9.65153 11.4564 9.68018 11.4832C9.71682 11.517 9.89013 11.8153 9.89013 11.8359V23.9998H0.537748C0.514733 23.9998 0.200513 23.8016 0.166226 23.7622C-0.0643893 23.4987 -0.0521775 23.0582 0.185014 22.8036C0.218831 22.767 0.517082 22.5937 0.537748 22.5937H1.40479L1.40385 11.9284C1.41794 11.8143 1.51563 11.5879 1.59125 11.5067C1.62507 11.4701 1.92332 11.2967 1.94399 11.2967H2.81103L2.82183 6.22152C2.95804 5.70817 3.56346 5.49072 3.98148 5.8378C4.03315 5.88054 4.21774 6.17925 4.21774 6.21119V11.2972V11.2967ZM4.06415 14.1199C3.33003 14.3604 3.33003 15.2645 4.06415 15.505C5.0115 15.4214 6.28247 15.6553 7.19132 15.5129C7.94516 15.3951 7.97851 14.2989 7.2303 14.1199H4.06368H4.06415ZM4.06415 16.9323C3.33003 17.1728 3.33003 18.0769 4.06415 18.3173C5.0115 18.2337 6.28247 18.4676 7.19132 18.3253C7.94516 18.2074 7.97851 17.1112 7.2303 16.9323H4.06368H4.06415ZM4.06415 19.7451C3.33003 19.9856 3.33003 20.8897 4.06415 21.1302C5.0115 21.0466 6.28247 21.2805 7.19132 21.1382C7.94516 21.0203 7.97851 19.9241 7.2303 19.7451H4.06368H4.06415Z" fill="white"/>
<path d="M16.0651 14.1207C16.9538 13.9769 17.7203 15.3719 17.9885 16.0656C18.4145 17.1669 18.5742 18.4749 17.5268 19.2851C16.1802 20.3264 14.2047 19.4401 14.1075 17.7441C14.0507 16.7583 14.9675 14.2982 16.0656 14.1207H16.0651Z" fill="white"/>
</g>
<defs>
<clipPath id="clip0_23_467">
<rect width="24" height="24" fill="white"/>
</clipPath>
</defs>
</svg>
