<svg width="19" height="25" viewBox="0 0 19 25" fill="none" xmlns="http://www.w3.org/2000/svg">
<g style="mix-blend-mode:overlay" clip-path="url(#clip0_23_418)">
<path d="M17.662 0C18.4179 0.182516 18.9378 0.759267 18.9998 1.58528V23.1853C18.8683 24.5348 17.4864 25.1872 16.4298 24.3758C16.1168 24.1354 15.3534 23.2108 15.0623 23.1608C14.4516 23.0559 14.2324 23.6958 13.8782 24.0952C12.7775 25.3358 11.4844 25.2764 10.3882 24.0697C10.0915 23.7432 9.94024 23.2624 9.42437 23.3115C9.00919 23.3506 8.71504 24.0155 8.43677 24.3044C7.46058 25.3197 6.07863 25.1611 5.16891 24.1469C4.78052 23.714 4.48339 22.9032 3.79044 23.216C3.21752 23.6525 2.59004 24.6303 1.85492 24.7189C0.919406 24.8316 0.244803 24.3007 -0.000732422 23.3657V1.35323C0.195696 0.64715 0.615339 0.205982 1.28597 0H17.662ZM8.50125 11.0407C8.62327 11.7436 8.24679 13.5135 8.80879 13.9698C9.24083 14.3202 9.6704 14.17 9.98488 13.7554C10.475 13.1099 11.4536 11.4344 11.8142 10.684C12.3867 9.49448 11.1044 9.25408 10.4973 8.55061L10.4764 5.71067C10.3202 4.9321 9.45115 4.71986 9.01216 5.39465L7.03647 9.56071C6.84947 10.5072 7.91841 10.6871 8.50125 11.0407ZM5.37972 16.2486C4.49232 16.4838 4.55681 17.7708 5.46653 17.9017H13.531C14.4884 17.7593 14.4884 16.3785 13.531 16.2361L5.37972 16.2486Z" fill="white"/>
</g>
<defs>
<clipPath id="clip0_23_418">
<rect width="19" height="25" fill="white"/>
</clipPath>
</defs>
</svg>
