<svg width="19" height="19" viewBox="0 0 19 19" fill="none" xmlns="http://www.w3.org/2000/svg">
<g clip-path="url(#clip0_3_504)">
<path d="M0.00328594 18.2171C0.0343711 17.9551 0.256467 17.3203 0.389397 17.0822C1.09945 15.8072 4.2685 14.9982 5.62111 14.316C6.11234 14.0682 6.63179 13.7584 6.92178 13.2952L6.98109 12.5116C5.87511 12.485 4.7086 12.3863 3.7016 11.9199C3.35067 11.7574 2.70238 11.4594 3.06968 11.013C3.28564 10.7506 3.52573 10.6402 3.7376 10.2846C5.1442 7.92411 3.70283 4.63592 5.30086 2.01186C6.36552 0.264977 9.25194 -0.69403 11.0406 0.593522C11.1175 0.648736 11.2189 0.797541 11.2946 0.819078C11.4835 0.872726 11.9666 0.833176 12.2472 0.883691C14.0894 1.21615 14.6833 3.31978 14.7749 4.87205C14.8792 6.64635 14.1884 9.06246 15.4289 10.5372C15.7594 10.93 16.4792 11.2374 15.7001 11.6975C14.6792 12.3001 13.2603 12.4505 12.0819 12.4724V13.2736C12.0819 13.4886 12.909 14.0431 13.1155 14.1598C14.5372 14.9614 17.9394 15.7438 18.6593 17.1355C18.9084 17.6168 19.3285 18.7516 18.5587 18.9685L0.593904 18.9999C0.273645 18.9462 0.114947 18.7657 0.00328594 18.4908C0.0106482 18.4019 -0.00693945 18.3048 0.00328594 18.2171Z" fill="#1B1B1B"/>
</g>
<defs>
<clipPath id="clip0_3_504">
<rect width="19" height="19" fill="white"/>
</clipPath>
</defs>
</svg>
