<svg width="12" height="12" viewBox="0 0 12 12" fill="none" xmlns="http://www.w3.org/2000/svg">
<g clip-path="url(#clip0_82_1524)">
<path d="M1.11394 12H5.44901L5.52344 11.8723L5.51124 6.7759C5.49122 6.72709 5.45218 6.68954 5.40166 6.67053L1.19911 6.65997C0.946047 6.68626 0.689321 6.91388 0.674679 7.16262L0.675655 11.5199C0.714213 11.7646 0.88455 11.912 1.11419 12H1.11394Z" fill="#12F280"/>
<path d="M6.56851 12H10.9036C11.133 11.912 11.3035 11.7648 11.3421 11.5199C11.3309 10.0347 11.3641 8.54478 11.3253 7.06241C11.2567 6.85919 11.0427 6.68296 10.8184 6.65973L6.61586 6.67052C6.52361 6.69798 6.49652 6.79701 6.49433 6.88149L6.49384 11.8723L6.56827 12H6.56851Z" fill="#12F280"/>
<path d="M12 3.59197C11.8941 3.3146 11.712 3.17403 11.4028 3.14728L6.75053 3.14587C6.57458 3.15995 6.51089 3.19492 6.49454 3.3681C6.41938 4.16455 6.55457 5.06871 6.49454 5.87666C6.48478 5.97803 6.58459 6.04538 6.67806 6.05148L11.4275 6.05078C11.7123 6.02356 11.9114 5.86445 12 5.60609V3.59197Z" fill="#12F280"/>
<path d="M5.35716 3.15245L0.637495 3.14612C0.308045 3.17099 0.0710864 3.32845 0.0176425 3.65088C0.0581522 4.25631 -0.0375104 4.92745 0.0164218 5.52514C0.0439978 5.8302 0.281445 6.01793 0.589907 6.05102L5.29102 6.05219C5.41158 6.05102 5.51651 6.00291 5.52188 5.8762C5.46405 5.06004 5.59705 4.15001 5.52261 3.34511C5.51212 3.23083 5.48015 3.17545 5.3574 3.15269L5.35716 3.15245Z" fill="#12F280"/>
<path d="M3.09119 0.0154745C2.27342 -0.0544553 1.62746 0.235354 1.46127 1.05715C1.0796 2.94455 3.79499 2.94478 5.02932 2.54468C5.57743 2.36681 6.05208 1.97304 5.67334 1.39671C5.26921 0.781886 3.83525 0.0790684 3.09119 0.0154745ZM3.01871 0.928317C3.5939 0.991206 4.19033 1.35892 4.64448 1.683C4.64643 1.71115 4.30551 1.77404 4.26037 1.78155C3.79914 1.85782 3.0414 1.88833 2.61434 1.69191C2.43327 1.60861 2.36713 1.53492 2.38275 1.33475C2.41496 0.924327 2.63948 0.886781 3.01871 0.928317Z" fill="#12F280"/>
<path d="M9.44916 0.0145734C8.63652 -0.083516 7.70406 0.329961 7.04882 0.762212C4.38663 2.5182 8.70412 3.26302 10.0353 2.39289C10.9986 1.76352 10.6037 0.153729 9.44916 0.0145734ZM9.35228 0.927415C9.58607 0.973175 9.67905 1.36459 9.58607 1.53965C9.4294 1.83509 8.49059 1.85363 8.18774 1.8365C8.10672 1.83181 7.37217 1.74053 7.37339 1.68327C7.82681 1.32564 8.75171 0.810084 9.35228 0.927415Z" fill="#12F280"/>
</g>
<defs>
<clipPath id="clip0_82_1524">
<rect width="12" height="12" fill="white" transform="matrix(-1 0 0 1 12 0)"/>
</clipPath>
</defs>
</svg>
