<svg width="17" height="17" viewBox="0 0 17 17" fill="none" xmlns="http://www.w3.org/2000/svg">
<path d="M0.0134864 7.99999C0.0354473 7.60952 0.109316 7.15652 0.189839 6.76572C0.399133 5.7483 0.816723 4.71924 1.40867 3.86879C2.87273 3.54684 4.40833 3.53386 5.88337 3.78764C5.87239 4.05039 5.98419 4.28919 6.07902 4.526C5.01957 6.11083 4.24861 7.89954 3.94748 9.79435C3.42375 9.93903 2.97821 10.248 2.73564 10.7409C2.0818 10.544 1.41599 10.2893 0.80907 9.97562C0.670317 9.90377 0.21912 9.67628 0.13294 9.5898C0.0201412 9.47705 0.0610683 9.22361 0.0480914 9.07594C0.0444313 9.0337 0.0138191 9.00044 0.0134864 8.99578C-0.00547984 8.69944 -0.0034834 8.29733 0.0134864 7.99999Z" fill="#004739"/>
<path d="M9.03935 0C9.61965 0.0764975 10.2279 0.136365 10.7969 0.316966C10.8265 0.326278 10.8914 0.32395 10.8481 0.365192C9.93841 0.835485 9.08593 1.41021 8.30765 2.07574C8.14561 2.05545 7.99255 1.97463 7.82784 1.95867C7.31242 1.90845 6.75442 2.06976 6.38341 2.43827C6.32019 2.50113 6.17345 2.75125 6.10591 2.75324C5.16192 2.58196 4.17534 2.51776 3.21439 2.55435C2.95585 2.56433 2.66037 2.63484 2.40283 2.60557C3.77639 1.15478 5.69763 0.224503 7.69541 0.0332598C7.78458 0.0246122 7.90969 0.00399117 7.97757 0H9.03935Z" fill="#004739"/>
<path d="M14.6758 10.4948C15.0754 11.3659 15.3802 12.2819 15.5682 13.2245C13.4825 16.3815 9.30432 17.8366 5.71837 16.5089C5.29746 15.4585 5.01795 14.3546 4.88818 13.2278C4.88818 13.0904 5.0652 13.0715 5.16702 13.006C5.4219 12.842 5.67112 12.6424 5.79257 12.3537C8.43786 12.3946 11.0728 11.7208 13.2842 10.272C13.7301 10.5148 14.1723 10.5757 14.6758 10.4945V10.4948Z" fill="#004739"/>
<path d="M6.02404 11.282C5.91922 10.6864 5.56053 10.1565 4.99121 9.92405C5.29367 8.26672 5.92222 6.68189 6.85489 5.28398C7.04955 5.29828 7.23122 5.39341 7.43053 5.41037C7.81485 5.44296 8.20283 5.35316 8.53157 5.15161C8.65868 5.07378 8.87762 4.82433 8.94118 4.7954C8.97711 4.7791 9.0034 4.77478 9.03967 4.79373C10.4891 5.50516 11.8057 6.4953 12.8519 7.72259C12.6053 8.08845 12.4539 8.49588 12.4912 8.94522C12.5018 9.0736 12.6163 9.37493 12.575 9.46008C11.4297 10.1908 10.139 10.719 8.80775 11.0043C7.89438 11.2002 6.95837 11.2834 6.02437 11.2817L6.02404 11.282Z" fill="#004739"/>
<path d="M15.1733 7.2982C14.9307 7.24598 14.7134 7.1023 14.4615 7.07403C14.223 7.04709 13.9834 7.07968 13.7498 7.1186C12.535 5.72036 11.0406 4.53764 9.34365 3.77898C9.33899 3.61202 9.33234 3.44306 9.29574 3.27909C9.27078 3.16734 9.10109 2.8374 9.12072 2.78951C10.0407 1.99726 11.0992 1.3743 12.2169 0.901681C12.3214 0.883721 12.5103 1.00412 12.6125 1.05667C14.1501 1.84992 15.5905 3.47798 16.2793 5.05649C16.3219 5.15427 16.4743 5.49153 16.4477 5.5667C16.4024 5.69375 16.1592 6.01936 16.0683 6.15174C15.7928 6.55118 15.4697 6.91538 15.1733 7.29853V7.2982Z" fill="#004739"/>
<path d="M2.59514 11.8246C2.7086 12.4542 3.17577 12.991 3.797 13.1613L3.82462 13.1999C3.90347 14.1185 4.11709 15.0155 4.36 15.9006C2.45871 14.8519 1.00364 13.0379 0.378418 10.9548C1.09747 11.2938 1.83582 11.5858 2.59481 11.8246H2.59514Z" fill="#004739"/>
<path d="M16.8706 6.90473C17.0919 8.28568 17.0426 9.68358 16.6217 11.0206L16.3069 11.8172C16.1153 11.162 15.8587 10.5294 15.5779 9.90842C15.866 9.48735 15.9935 9.06396 15.9412 8.5481C15.9293 8.43135 15.8251 8.20353 15.8467 8.1237C15.861 8.07115 16.2647 7.64376 16.3389 7.5513C16.4916 7.36006 16.6407 7.12624 16.7944 6.94697C16.8147 6.92336 16.7931 6.88411 16.8702 6.90506L16.8706 6.90473Z" fill="#004739"/>
<path d="M4.25463 10.8294C5.27115 10.7729 5.12574 12.4102 4.13417 12.1601C3.36654 11.9666 3.52958 10.8696 4.25463 10.8294Z" fill="#004739"/>
<path d="M7.43805 3.02864C8.03532 2.92686 8.48785 3.47066 8.19104 4.01446C7.84765 4.64373 6.83878 4.3567 6.95191 3.53818C6.98186 3.32199 7.22277 3.06555 7.43805 3.02864Z" fill="#004739"/>
<path d="M14.0745 8.14094C14.8019 8.01489 15.1882 8.89827 14.6298 9.32699C14.0668 9.75936 13.3078 9.14838 13.6239 8.48684C13.6988 8.32986 13.9008 8.17088 14.0745 8.14094Z" fill="#004739"/>
</svg>
