<svg width="141" height="427" viewBox="0 0 141 427" fill="none" xmlns="http://www.w3.org/2000/svg">
<path d="M92 426L92 26" stroke="#004739" stroke-width="1.5"/>
<path d="M92 52L0 52" stroke="#004739" stroke-width="1.5"/>
<path d="M-4.11272e-06 183L141 183" stroke="#004739" stroke-width="1.5"/>
<path d="M-4.11272e-06 303L141 303" stroke="#004739" stroke-width="1.5"/>
<path d="M92 426H0" stroke="#004739" stroke-width="1.5"/>
<circle cx="93" cy="157" r="25.25" fill="#12F280" stroke="#004739" stroke-width="1.5"/>
<circle cx="93" cy="277" r="25.25" fill="#12F280" stroke="#004739" stroke-width="1.5"/>
<circle cx="93" cy="401" r="25.25" fill="#12F280" stroke="#004739" stroke-width="1.5"/>
<path d="M84.02 165V161.25L85.31 160.32C85.87 159.92 86.49 159.48 87.17 159C87.87 158.5 88.57 157.98 89.27 157.44C89.97 156.88 90.64 156.31 91.28 155.73C91.94 155.13 92.52 154.53 93.02 153.93C93.54 153.31 93.95 152.7 94.25 152.1C94.57 151.5 94.73 150.92 94.73 150.36C94.73 149.58 94.45 148.99 93.89 148.59C93.35 148.19 92.71 147.99 91.97 147.99C91.65 147.99 91.33 148.03 91.01 148.11C90.71 148.19 90.42 148.33 90.14 148.53C89.86 148.71 89.61 148.96 89.39 149.28C89.19 149.6 89.03 149.99 88.91 150.45L84.77 148.95C85.31 147.55 86.23 146.48 87.53 145.74C88.85 144.98 90.4 144.6 92.18 144.6C93.2 144.6 94.14 144.73 95 144.99C95.88 145.25 96.64 145.63 97.28 146.13C97.92 146.61 98.42 147.22 98.78 147.96C99.14 148.68 99.32 149.51 99.32 150.45C99.32 151.47 99.1 152.45 98.66 153.39C98.22 154.31 97.59 155.21 96.77 156.09C95.97 156.97 94.98 157.84 93.8 158.7C92.64 159.54 91.32 160.39 89.84 161.25H99.41V165H84.02Z" fill="#004739"/>
<path d="M89.13 280.3C89.39 281.28 89.86 281.97 90.54 282.37C91.24 282.77 92.01 282.97 92.85 282.97C93.81 282.97 94.56 282.75 95.1 282.31C95.66 281.85 95.94 281.2 95.94 280.36C95.94 279.74 95.79 279.23 95.49 278.83C95.19 278.43 94.78 278.12 94.26 277.9C93.74 277.66 93.14 277.5 92.46 277.42C91.8 277.32 91.09 277.27 90.33 277.27V274.09C92.07 274.09 93.4 273.86 94.32 273.4C95.24 272.92 95.7 272.23 95.7 271.33C95.7 270.93 95.61 270.59 95.43 270.31C95.27 270.01 95.04 269.77 94.74 269.59C94.46 269.39 94.13 269.24 93.75 269.14C93.39 269.04 93 268.99 92.58 268.99C91.84 268.99 91.16 269.17 90.54 269.53C89.92 269.89 89.51 270.53 89.31 271.45L85.2 269.95C85.5 269.19 85.91 268.54 86.43 268C86.95 267.44 87.55 266.99 88.23 266.65C88.91 266.29 89.64 266.03 90.42 265.87C91.22 265.69 92.03 265.6 92.85 265.6C93.77 265.6 94.67 265.7 95.55 265.9C96.45 266.1 97.25 266.42 97.95 266.86C98.65 267.28 99.21 267.82 99.63 268.48C100.07 269.12 100.29 269.89 100.29 270.79C100.29 271.33 100.21 271.84 100.05 272.32C99.89 272.8 99.68 273.24 99.42 273.64C99.16 274.02 98.86 274.37 98.52 274.69C98.2 274.99 97.86 275.24 97.5 275.44C98 275.62 98.44 275.89 98.82 276.25C99.2 276.59 99.52 276.97 99.78 277.39C100.06 277.81 100.27 278.26 100.41 278.74C100.55 279.22 100.62 279.69 100.62 280.15C100.62 281.19 100.4 282.1 99.96 282.88C99.52 283.66 98.93 284.31 98.19 284.83C97.47 285.33 96.63 285.71 95.67 285.97C94.73 286.23 93.75 286.36 92.73 286.36C91.89 286.36 91.07 286.27 90.27 286.09C89.47 285.91 88.73 285.64 88.05 285.28C87.37 284.9 86.76 284.43 86.22 283.87C85.7 283.29 85.29 282.6 84.99 281.8L89.13 280.3Z" fill="#004739"/>
<path d="M83.69 401.44L93.44 388.96H98V400.75H100.76V404.77H98V409H93.44V404.77H83.69V401.44ZM88.64 400.75H93.44V394.93L88.64 400.75Z" fill="#004739"/>
<circle cx="50" cy="277" r="25.25" fill="#004739" stroke="#004739" stroke-width="1.5"/>
<path d="M61.9993 288.619C61.7766 290.901 60.0374 292.777 57.7344 293H42.2217C40.1369 292.819 38.4422 291.299 38.1064 289.221C37.9724 281.632 37.9535 273.989 38.1162 266.402C38.5434 264.157 40.6276 262.55 42.909 262.746C42.8371 265.155 44.8324 267.448 47.2425 267.645C48.6805 267.763 51.3487 267.774 52.7789 267.645C55.1733 267.431 57.1928 265.166 57.1124 262.746C58.4733 262.631 59.878 263.175 60.7953 264.183C61.4597 264.913 61.9164 266.011 62 266.993V288.619L61.9993 288.619ZM49.1503 272.828C43.8126 273.27 40.591 279.131 43.0697 283.916C45.798 289.182 53.342 289.405 56.3415 284.286C59.4683 278.949 55.2766 272.321 49.1503 272.828Z" fill="#12F280"/>
<path d="M52.5009 261C54.9649 261.556 54.8642 265.106 52.285 265.29C50.7562 265.399 49.0903 265.208 47.5464 265.282C45.1706 264.738 45.0724 261.642 47.4476 261H52.5009Z" fill="#12F280"/>
<path d="M48.2757 281.166L52.2993 278.598C52.7984 278.264 53.6422 278.089 53.9863 278.718C54.3304 279.346 54.4533 280.166 53.9431 280.717C52.2404 281.711 50.4827 283.257 48.7656 284.155C48.1069 284.5 47.4194 284.37 46.8451 283.91C46.4762 283.614 45.2039 281.566 45.0011 281.076C44.3123 279.411 46.2642 278.264 47.2945 279.503C47.6575 279.94 47.984 280.661 48.2764 281.166H48.2757Z" fill="#12F280"/>
<circle cx="50" cy="157" r="25.25" fill="#004739" stroke="#004739" stroke-width="1.5"/>
<path d="M50.0032 141V173H47.0922V170.072H39.3415C38.396 170.072 37.0068 168.566 37.0068 167.587L37.0034 146.546C36.9212 145.516 38.3641 143.927 39.3415 143.927H47.0922V141H50.0032ZM47.0922 165.715V157.136L39.9842 165.715H47.0922Z" fill="#12F280"/>
<path d="M63 146.243V167.758C62.7577 168.543 62.3423 169.248 61.6256 169.677C61.462 169.775 60.8146 170.072 60.6646 170.072H52.8459V157L60.089 165.579V146.856H52.8459V143.928H60.6646C60.8146 143.928 61.462 144.225 61.6256 144.323C62.343 144.752 62.7577 145.458 63 146.242V146.243Z" fill="#12F280"/>
<circle cx="50" cy="401" r="25.25" fill="#004739" stroke="#004739" stroke-width="1.5"/>
<path d="M55.5232 383C55.651 383.125 55.8086 383.201 55.9435 383.321C59.6664 386.609 63.0103 390.72 66.7041 394.083C66.9882 394.443 67.1341 394.694 66.8345 395.118L46.1172 415.835C45.6749 416.147 45.4095 415.973 45.0499 415.673L34.3209 404.944L34 404.523V404.136L55.1364 383H55.5232ZM61.9482 394.033C61.839 394.058 61.7887 394.119 61.708 394.179C61.3096 394.475 59.1641 396.608 58.9103 396.988C58.4383 397.693 59.1434 398.428 59.8375 397.979L62.7404 395.082C63.122 394.496 62.5912 393.885 61.9482 394.032V394.033ZM48.6791 395.392C47.6028 395.495 46.7241 396.177 46.4671 397.239C45.8944 399.603 48.2162 402.417 50.3043 403.265C53.5358 404.579 55.5722 402.247 54.1808 399.131C53.3273 397.221 50.8686 395.181 48.6791 395.392ZM38.3376 404.825C38.5416 405.006 38.9961 405.042 39.217 404.875C40.0092 403.926 41.2895 403.031 42.0243 402.076C42.5996 401.329 41.8687 400.553 41.1559 401.015C40.8608 401.206 38.5035 403.564 38.2827 403.877C38.078 404.167 38.0535 404.575 38.3376 404.826V404.825Z" fill="#12F280"/>
<path d="M34.0007 400.557L34.4346 400.125L38 399L34.5852 401.994C34.4491 402.018 34.501 401.969 34.4671 401.919C34.2605 401.614 34.2425 401.21 34 400.916V400.557H34.0007Z" fill="#12F280"/>
<path d="M51.9998 411.999L57.8086 405.928C58.0208 406.225 58.2617 406.479 58.6548 406.389L62.5358 404.882C62.9749 404.372 62.7141 403.667 62.0549 403.603C61.1395 403.8 60.2454 404.347 59.354 404.581C59.2855 404.599 59.1464 404.686 59.1038 404.597L64.6147 399L66.9743 405.582C67.1892 406.485 65.9911 406.683 65.3611 406.933C60.9339 408.689 56.4203 410.227 51.9998 412V411.999Z" fill="#12F280"/>
<path d="M37.0002 410L42.0002 415.165L39.7221 415.994C39.4907 416.03 39.2725 415.913 39.1037 415.765L37.0002 410Z" fill="#12F280"/>
<circle cx="93" cy="26" r="25.25" fill="#12F280" stroke="#004739" stroke-width="1.5"/>
<path d="M86.41 21.56V17.87C87.19 17.87 87.87 17.85 88.45 17.81C89.05 17.75 89.57 17.62 90.01 17.42C90.45 17.22 90.83 16.93 91.15 16.55C91.49 16.17 91.79 15.64 92.05 14.96H95.5V35H90.97V21.56H86.41Z" fill="#004739"/>
<circle cx="50" cy="26" r="25.25" fill="#004739" stroke="#004739" stroke-width="1.5"/>
<path d="M60.5623 17C61.8063 17.2917 62.7003 18.1627 63 19.375V33.5739C62.7252 34.8487 61.7264 35.8289 60.3837 35.9975L39.6637 36C38.298 35.8661 37.2051 34.8125 37 33.4995V19.499C37.1979 18.2302 38.1733 17.2961 39.4367 17H60.5623ZM44.7055 21.2674C41.5427 21.6553 41.7834 26.5169 45.1441 26.494C48.833 26.4692 48.5888 20.7912 44.7055 21.2674ZM52.9326 21.7624C51.917 21.9043 51.9241 23.2024 52.9758 23.3274H58.9569C59.9873 23.1691 59.9883 21.9137 58.9569 21.755L52.9326 21.7624ZM52.4039 26.2197C51.9363 26.7049 52.2558 27.4747 52.9188 27.5382L59.0607 27.5352C59.9507 27.3358 59.942 26.193 59.0648 26.0035C57.0794 26.1319 54.8762 25.8363 52.9173 26.0025C52.725 26.0188 52.5382 26.0799 52.4039 26.2197ZM42.7761 27.6002C41.5351 27.8145 40.5383 28.7282 40.3129 29.9504C40.1999 30.5625 40.1023 31.6637 40.983 31.746L49.3149 31.7445C50.3468 31.6235 49.9916 29.8606 49.7031 29.2366C48.5333 26.7078 45.0159 27.8239 42.7756 27.6002H42.7761ZM52.4034 31.5288C52.496 31.619 52.7356 31.7287 52.8674 31.7445H59.0653C59.9451 31.5615 59.9461 30.3929 59.0597 30.2143L52.9193 30.2098C52.2635 30.2579 51.9317 31.068 52.4034 31.5288Z" fill="#12F280"/>
</svg>
