<svg width="17" height="17" viewBox="0 0 17 17" fill="none" xmlns="http://www.w3.org/2000/svg">
<path d="M17 6.08816V6.53283C16.7785 7.22492 16.3205 7.81373 16.0456 8.48464C16.2969 9.16967 16.7828 9.76034 17 10.4621V10.9068C16.7588 12.032 15.4606 12.1925 14.6088 12.7456C14.3014 13.6194 14.5588 14.7822 13.6904 15.3858C12.9075 15.9297 11.9256 15.4315 11.07 15.3929C10.9894 15.3892 10.8826 15.3788 10.8079 15.3999C10.6863 15.4345 9.75706 16.426 9.54488 16.5973C8.8801 17.1348 8.12162 17.1337 7.45799 16.5973C7.24621 16.426 6.31659 15.4345 6.19502 15.3999C6.12029 15.3788 6.01305 15.3892 5.9329 15.3929C5.03465 15.4334 4.0547 15.9568 3.24743 15.3372C2.45759 14.7305 2.6926 13.5867 2.39409 12.7456C1.38743 12.1267 -0.373073 11.8221 0.0702464 10.2856C0.183302 9.89445 0.968887 8.69379 0.957659 8.48464C0.945656 8.26435 0.283194 7.25055 0.15078 6.92884C-0.157027 6.18177 0.036949 5.5064 0.750131 5.08104C1.26663 4.77271 1.88147 4.56839 2.39448 4.24928C2.69919 3.39039 2.44907 2.25251 3.26873 1.64067C4.11819 1.00616 5.2414 1.64995 6.19579 1.59497C6.83928 1.12207 7.45993 0.0792915 8.32605 0.00759378C8.82667 -0.0340132 9.17048 0.0952656 9.54488 0.397659C9.75667 0.568916 10.6863 1.56043 10.8079 1.59497C10.8826 1.61615 10.9898 1.60575 11.07 1.60203C11.9338 1.56303 12.93 1.05631 13.7132 1.62432C14.5581 2.23728 14.3029 3.38667 14.6092 4.24928C15.4629 4.80465 16.7588 4.95845 17 6.08816ZM11.3135 6.05918C11.2156 6.06847 11.0824 6.11379 11.0115 6.17991L7.54976 9.49584L5.97162 8.01545C5.38659 7.62204 4.68154 8.30818 5.15932 8.90628C5.42453 9.23803 6.79127 10.5613 7.13044 10.7957C7.42392 10.9985 7.70966 10.9866 7.98107 10.7597L11.8792 7.01242C12.1951 6.58261 11.8621 6.00754 11.3135 6.05918Z" fill="#12F280"/>
</svg>
