<svg width="142" height="24" viewBox="0 0 142 24" fill="none" xmlns="http://www.w3.org/2000/svg">
<path d="M3.59847 18.257C2.46752 17.6255 1.58626 16.7882 0.954696 15.716C0.323128 14.6438 0 13.4982 0 12.235V11.7356C0 10.4871 0.323128 9.32681 0.954696 8.25459C1.58626 7.18237 2.46752 6.34517 3.59847 5.71359C4.72942 5.08201 5.99255 4.77356 7.40256 4.77356C9.37071 4.77356 10.9129 5.40514 12.0292 6.68299V0.205631H16.0242V18.7124H12.0292V17.4639C11.5885 17.978 10.8982 18.3892 9.95821 18.7124C9.0182 19.0355 8.16632 19.1824 7.40256 19.1824C5.99255 19.1824 4.72942 18.8739 3.59847 18.2423V18.257ZM10.5604 14.9082C11.2507 14.2766 11.6032 13.4394 11.6032 12.4259V11.5594C11.6032 10.5312 11.2507 9.70869 10.5604 9.07711C9.87009 8.44553 8.95945 8.1224 7.84319 8.1224C6.72693 8.1224 5.87505 8.43085 5.12598 9.06242C4.36223 9.694 3.99504 10.6781 3.99504 12.0294C3.99504 13.1897 4.34754 14.1297 5.06723 14.8201C5.78693 15.5104 6.71225 15.8629 7.85788 15.8629C9.00352 15.8629 9.87009 15.5398 10.5751 14.9082H10.5604Z" fill="#12F280"/>
<path d="M17.9043 5.49327H21.8993V18.7124H17.9043V5.49327ZM18.5652 3.46634C18.1834 3.08446 17.9777 2.59976 17.9777 2.01224C17.9777 1.42472 18.1687 0.9694 18.5652 0.587515C18.9618 0.20563 19.4612 0 20.0928 0C20.7243 0 21.2678 0.190942 21.6496 0.587515C22.0315 0.9694 22.2371 1.4541 22.2371 2.01224C22.2371 2.57038 22.0462 3.08446 21.6496 3.46634C21.2678 3.84823 20.739 4.05386 20.0928 4.05386C19.4465 4.05386 18.9471 3.86291 18.5652 3.46634Z" fill="#12F280"/>
<path d="M27.0988 20.7246H33.8991C34.3251 20.7246 34.6335 20.6365 34.8391 20.4455C35.0448 20.2546 35.1476 19.9755 35.1476 19.6083V17.9486C34.0754 18.918 32.6801 19.4027 30.9763 19.4027C29.5663 19.4027 28.3031 19.0942 27.1722 18.4627C26.0413 17.8311 25.16 16.9939 24.5284 15.9217C23.8969 14.8494 23.5737 13.7038 23.5737 12.4406V11.9412C23.5737 10.6928 23.8969 9.53243 24.5284 8.46022C25.16 7.388 26.0413 6.55079 27.1722 5.91922C28.3031 5.28764 29.5663 4.97919 30.9763 4.97919C32.6507 4.97919 34.0313 5.4492 35.1329 6.40392V5.47858H39.1573V19.2852C39.1573 20.4162 38.9811 21.2974 38.6285 21.9584C38.2467 22.6781 37.6445 23.2069 36.8367 23.5153C36.0288 23.8384 34.9713 23.9853 33.6641 23.9853H27.1281V20.7099L27.0988 20.7246ZM34.0754 15.1726C34.7951 14.5851 35.1476 13.836 35.1329 12.9253L35.1035 11.3978C35.0888 10.4871 34.7216 9.73806 34.0166 9.16524C33.3116 8.59241 32.4304 8.31334 31.3729 8.31334C30.2272 8.31334 29.3019 8.66585 28.5822 9.35618C27.8625 10.0465 27.51 10.9865 27.51 12.1469C27.51 13.3072 27.8625 14.2913 28.5822 14.9963C29.3019 15.7013 30.2272 16.0539 31.3729 16.0539C32.4451 16.0539 33.341 15.7601 34.0754 15.1873V15.1726Z" fill="#12F280"/>
<path d="M40.4497 5.49327H44.4447V18.7124H40.4497V5.49327ZM41.1106 3.46634C40.7288 3.08446 40.5231 2.59976 40.5231 2.01224C40.5231 1.42472 40.7141 0.9694 41.1106 0.587515C41.5072 0.20563 42.0066 0 42.6382 0C43.2697 0 43.8132 0.190942 44.1951 0.587515C44.5769 0.9694 44.7826 1.4541 44.7826 2.01224C44.7826 2.57038 44.5916 3.08446 44.1951 3.46634C43.8132 3.84823 43.2844 4.05386 42.6382 4.05386C41.9919 4.05386 41.4925 3.86291 41.1106 3.46634Z" fill="#12F280"/>
<path d="M49.982 17.5667C48.9686 16.8029 48.4545 15.5545 48.4545 13.8213V8.47491H46.1045V5.49327H48.4545V0.205631H52.4789V5.49327H55.3283V8.47491H50.2317V8.68054C50.7605 8.68054 51.2745 8.82742 51.7592 9.10649C52.2439 9.38556 52.4936 9.79682 52.4936 10.355V14.0857C52.4936 14.9816 53.0077 15.437 54.0211 15.437H55.1814V18.7124H54.2267C52.4055 18.7124 50.9955 18.3305 49.982 17.5667Z" fill="#12F280"/>
<path d="M56.6502 5.52264H60.5571V7.07956C60.8362 6.63892 61.3796 6.19829 62.2021 5.77234C63.01 5.34639 63.715 5.12607 64.3172 5.12607H64.3906C66.3881 5.12607 67.8422 5.80171 68.7822 7.13831C69.7663 5.80171 71.2497 5.12607 73.2179 5.12607H73.3207C75.1419 5.12607 76.5226 5.66952 77.4773 6.74174C78.432 7.81395 78.9167 9.34149 78.9167 11.3097V18.7417H74.8923V10.8397C74.8923 10.1053 74.6866 9.51775 74.2901 9.0918C73.8788 8.66585 73.306 8.46022 72.5716 8.46022C71.7638 8.46022 71.1322 8.68054 70.6622 9.10649C70.1922 9.53244 69.9719 10.164 69.9719 10.9718V18.7417H66.4322L66.4616 10.8837C66.4616 10.1053 66.1972 9.50306 65.6537 9.0918C65.1103 8.66585 64.4347 8.46022 63.6268 8.46022C62.7162 8.46022 61.9818 8.66585 61.4237 9.06242C60.8656 9.47368 60.5865 10.1053 60.5865 10.9718V18.7417H56.6208V5.52264H56.6502Z" fill="white"/>
<path d="M83.7194 18.213C82.5591 17.5373 81.7072 16.6854 81.1344 15.6279C80.5615 14.5851 80.2825 13.4835 80.2825 12.3378V11.9119C80.2825 10.7515 80.5762 9.63525 81.1637 8.57772C81.7512 7.52019 82.6178 6.6683 83.7634 6.00734C84.9091 5.36108 86.2897 5.02325 87.8907 5.02325C89.4916 5.02325 90.8723 5.34639 92.0326 6.00734C93.1929 6.65361 94.0595 7.52019 94.647 8.57772C95.2345 9.63525 95.5282 10.7515 95.5282 11.9119V12.3378C95.5282 13.4835 95.2345 14.5851 94.6763 15.6279C94.1035 16.6707 93.237 17.5373 92.0913 18.213C90.931 18.8886 89.5504 19.2117 87.9347 19.2117C86.3191 19.2117 84.8944 18.8739 83.7488 18.213H83.7194ZM90.5785 14.9082C91.2101 14.2326 91.5332 13.3072 91.5332 12.1322C91.5332 10.9572 91.2101 10.0024 90.5785 9.3268C89.9469 8.65116 89.051 8.32803 87.876 8.32803C86.701 8.32803 85.8344 8.66585 85.2028 9.3268C84.5713 10.0024 84.2481 10.9278 84.2481 12.1322C84.2481 13.3366 84.5713 14.2326 85.2028 14.9082C85.8344 15.5838 86.7303 15.9217 87.9053 15.9364C89.051 15.9217 89.9469 15.5692 90.5785 14.9082Z" fill="white"/>
<path d="M96.8355 5.49327H100.801V7.05018C101.242 6.49204 101.815 6.02203 102.534 5.65483C103.254 5.28764 104.032 5.09669 104.899 5.09669C106.838 5.09669 108.292 5.64015 109.276 6.71236C110.26 7.78458 110.745 9.31212 110.745 11.2803V18.7124H106.75V10.8397C106.75 10.1053 106.471 9.51775 105.912 9.07711C105.354 8.65116 104.664 8.43084 103.812 8.43084C102.96 8.43084 102.211 8.66585 101.668 9.12117C101.124 9.5765 100.845 10.1934 100.845 10.9718V18.7124H96.8208V5.49327H96.8355Z" fill="white"/>
<path d="M115.518 18.213C114.358 17.5373 113.506 16.6854 112.933 15.6279C112.36 14.5851 112.081 13.4835 112.081 12.3378V11.9119C112.081 10.7515 112.375 9.63525 112.962 8.57772C113.55 7.52019 114.416 6.6683 115.562 6.00734C116.708 5.36108 118.088 5.02325 119.689 5.02325C121.29 5.02325 122.671 5.34639 123.831 6.00734C124.991 6.65361 125.858 7.52019 126.446 8.57772C127.033 9.63525 127.327 10.7515 127.327 11.9119V12.4406C127.327 12.6169 127.327 12.7931 127.297 12.9694H116.12C116.267 13.9094 116.649 14.6291 117.266 15.1432C117.897 15.6573 118.705 15.9217 119.719 15.9364C120.526 15.9217 121.217 15.7307 121.775 15.3782C122.333 15.0257 122.759 14.5263 123.023 13.8654H127.151C126.916 14.8348 126.49 15.716 125.873 16.5239C125.256 17.3317 124.419 17.978 123.376 18.4627C122.333 18.9621 121.114 19.1971 119.733 19.1971C118.088 19.1971 116.693 18.8592 115.547 18.1983L115.518 18.213ZM121.819 8.88617C121.231 8.51897 120.526 8.32803 119.675 8.32803C118.823 8.32803 118.118 8.51897 117.545 8.88617C116.972 9.25336 116.561 9.78213 116.311 10.4725H123.053C122.803 9.78213 122.392 9.25336 121.804 8.88617H121.819Z" fill="white"/>
<path d="M128.297 20.7246H131.014C131.733 20.7246 132.277 20.6071 132.629 20.3868C132.982 20.1518 133.246 19.7552 133.423 19.1677L133.555 18.7124H132.262L127.048 5.49327H130.94L134.847 15.8042L138.314 5.49327H141.985L137.036 20.1371C136.58 21.459 135.831 22.4284 134.803 23.06C133.775 23.6916 132.468 24 130.882 24H128.297V20.7246Z" fill="white"/>
</svg>
