<svg width="19" height="19" viewBox="0 0 19 19" fill="none" xmlns="http://www.w3.org/2000/svg">
<g clip-path="url(#clip0_3_502)">
<path d="M13.1514 8.56977C13.089 8.86878 13.0106 9.16817 12.917 9.45974C12.8685 9.6112 12.7248 9.82684 12.7031 9.95873C12.6772 10.1149 12.6756 11.5461 12.7207 11.6169C13.9565 12.2384 15.1775 12.8916 16.3348 13.6387C17.4593 14.3651 18.8335 15.167 18.9673 16.5967C19.0042 16.9908 19.0186 17.9332 18.9644 18.3112C18.911 18.6823 18.5153 18.9828 18.1302 19H0.881594C0.473093 18.9773 0.0884049 18.6713 0.0436546 18.276C-0.0651421 17.3172 0.000546464 16.1595 0.575321 15.3459C1.27408 14.3561 3.89916 12.8971 5.05446 12.274C5.25727 12.1645 6.34524 11.6745 6.38506 11.5508C6.41791 11.4479 6.41175 10.3317 6.38342 10.2002C6.34852 10.0393 6.0636 9.60141 5.98149 9.37246C5.92278 9.20848 5.75979 8.42497 5.72818 8.38387C5.71627 8.36861 5.50114 8.26255 5.41082 8.15923C5.0561 7.75534 4.63528 6.28811 4.81634 5.79773C4.93868 5.46625 5.32009 5.53826 5.32666 5.46585C4.57904 3.45267 5.8534 1.53029 7.64998 0.532305C9.277 -0.371357 11.3027 -0.10562 12.5988 1.18823C12.6723 1.26142 12.7573 1.43205 12.8266 1.47902C12.9149 1.5389 13.1485 1.58743 13.2865 1.66531C14.5157 2.35724 14.2541 4.61972 13.9836 5.74138C14.305 5.91866 14.3198 6.23254 14.2972 6.55855C14.2697 6.95891 13.8432 8.45119 13.4355 8.58895C13.3189 8.62848 13.2639 8.59521 13.1514 8.57016V8.56977Z" fill="#12F280"/>
</g>
<defs>
<clipPath id="clip0_3_502">
<rect width="19" height="19" fill="white"/>
</clipPath>
</defs>
</svg>
