<svg width="23" height="23" viewBox="0 0 23 23" fill="none" xmlns="http://www.w3.org/2000/svg">
<g style="mix-blend-mode:overlay" clip-path="url(#clip0_23_480)">
<path d="M0.0180024 10.8236C0.0477147 10.2953 0.147656 9.68238 0.256601 9.15364C0.539768 7.77712 1.10475 6.38484 1.90563 5.23421C3.88645 4.79862 5.96406 4.78107 7.95973 5.12441C7.94488 5.47991 8.09614 5.803 8.22444 6.12339C6.79105 8.26761 5.74797 10.6877 5.34055 13.2513C4.63196 13.447 4.02916 13.8651 3.70097 14.5319C2.81636 14.2656 1.91554 13.9209 1.0944 13.4965C0.90667 13.3993 0.296217 13.0915 0.179619 12.9745C0.0270062 12.822 0.082379 12.4791 0.0648218 12.2793C0.0598697 12.2221 0.0184526 12.1771 0.0180024 12.1708C-0.00765816 11.7699 -0.00495705 11.2259 0.0180024 10.8236Z" fill="white"/>
<path d="M12.2297 0C13.0148 0.103498 13.8378 0.184497 14.6076 0.428843C14.6476 0.441442 14.7354 0.438292 14.6769 0.494091C13.4461 1.13038 12.2927 1.90797 11.2397 2.8084C11.0205 2.78095 10.8134 2.6716 10.5906 2.65C9.89323 2.58206 9.13826 2.8003 8.63631 3.29889C8.55077 3.38394 8.35224 3.72234 8.26085 3.72504C6.98367 3.49329 5.64887 3.40644 4.34874 3.45594C3.99894 3.46944 3.59918 3.56484 3.25073 3.52524C5.1091 1.56237 7.70847 0.303745 10.4114 0.0449992C10.532 0.0332994 10.7013 0.00539991 10.7931 0H12.2297Z" fill="white"/>
<path d="M19.8555 14.1985C20.3962 15.377 20.8085 16.6163 21.0629 17.8916C18.2411 22.1629 12.5882 24.1316 7.7365 22.3352C7.16701 20.9142 6.78885 19.4206 6.61328 17.8961C6.61328 17.7102 6.85278 17.6846 6.99054 17.5959C7.33538 17.3741 7.67257 17.1041 7.83689 16.7135C11.4159 16.7688 14.9809 15.8571 17.9728 13.897C18.5761 14.2255 19.1744 14.3078 19.8555 14.198V14.1985Z" fill="white"/>
<path d="M8.15006 15.2641C8.00825 14.4582 7.52295 13.7413 6.75269 13.4268C7.1619 11.1845 8.01231 9.04025 9.27418 7.14893C9.53754 7.16828 9.78334 7.29698 10.053 7.31993C10.573 7.36402 11.0979 7.24253 11.5427 6.96983C11.7146 6.86453 12.0109 6.52704 12.0968 6.48789C12.1455 6.46584 12.181 6.45999 12.2301 6.48564C14.1911 7.44817 15.9725 8.7878 17.3879 10.4483C17.0543 10.9433 16.8495 11.4945 16.8999 12.1024C16.9143 12.2761 17.0691 12.6838 17.0133 12.799C15.4638 13.7877 13.7175 14.5023 11.9163 14.8883C10.6806 15.1534 9.41418 15.2659 8.15051 15.2636L8.15006 15.2641Z" fill="white"/>
<path d="M20.5284 9.87398C20.2002 9.80333 19.9063 9.60894 19.5655 9.57069C19.2427 9.53424 18.9186 9.57834 18.6025 9.63099C16.9589 7.73922 14.9371 6.13905 12.6412 5.11262C12.6349 4.88672 12.6259 4.65812 12.5763 4.43628C12.5426 4.28508 12.313 3.83869 12.3395 3.77389C13.5843 2.70201 15.0163 1.85917 16.5285 1.21973C16.6699 1.19543 16.9256 1.35833 17.0638 1.42943C19.1441 2.50266 21.093 4.70537 22.0248 6.84104C22.0825 6.97333 22.2886 7.42962 22.2526 7.53132C22.1914 7.70322 21.8623 8.14376 21.7394 8.32286C21.3667 8.8633 20.9295 9.35604 20.5284 9.87443V9.87398Z" fill="white"/>
<path d="M3.5111 15.9975C3.66462 16.8494 4.29668 17.5757 5.13717 17.8061L5.17454 17.8582C5.28123 19.1011 5.57025 20.3148 5.89889 21.5122C3.32653 20.0934 1.35786 17.6391 0.511963 14.8208C1.48481 15.2793 2.48378 15.6744 3.51065 15.9975H3.5111Z" fill="white"/>
<path d="M22.8249 9.34208C23.1243 11.2104 23.0576 13.1018 22.4882 14.9107L22.0623 15.9885C21.803 15.102 21.4559 14.2461 21.0759 13.406C21.4658 12.8363 21.6382 12.2634 21.5675 11.5655C21.5513 11.4075 21.4104 11.0993 21.4397 10.9913C21.459 10.9202 22.0051 10.342 22.1055 10.2169C22.3121 9.95812 22.5138 9.64177 22.7218 9.39923C22.7493 9.36728 22.72 9.31418 22.8244 9.34253L22.8249 9.34208Z" fill="white"/>
<path d="M5.75599 14.6514C7.1313 14.5749 6.93457 16.7902 5.59302 16.4518C4.55444 16.1899 4.77503 14.7058 5.75599 14.6514Z" fill="white"/>
<path d="M10.0629 4.09779C10.871 3.96009 11.4833 4.69583 11.0817 5.43157C10.6171 6.28295 9.25215 5.89461 9.40522 4.78718C9.44573 4.49468 9.77167 4.14774 10.0629 4.09779Z" fill="white"/>
<path d="M19.042 11.014C20.0261 10.8435 20.5488 12.0387 19.7933 12.6187C19.0316 13.2037 18.0048 12.3771 18.4324 11.482C18.5337 11.2696 18.807 11.0545 19.042 11.014Z" fill="white"/>
</g>
<defs>
<clipPath id="clip0_23_480">
<rect width="23" height="23" fill="white"/>
</clipPath>
</defs>
</svg>
