<svg width="20" height="27" viewBox="0 0 20 27" fill="none" xmlns="http://www.w3.org/2000/svg">
<g style="mix-blend-mode:overlay" clip-path="url(#clip0_23_471)">
<path d="M1.09545 27.0004C0.484023 26.8069 0.0569131 26.3778 0 25.7098V1.28509C0.0783208 0.370288 0.934106 -0.237991 1.80817 0.0907226C2.49269 0.348092 2.69998 0.996536 2.68431 1.68303C5.19006 0.00827977 8.57978 -0.00123277 10.9863 1.87117C11.4839 2.25802 11.9022 2.7458 12.4326 3.09618C14.1719 4.24668 16.2688 4.29055 18.1767 3.55385C18.9474 3.25631 19.4888 2.71145 20.0005 3.84504V14.4997C19.811 15.0784 19.1364 15.368 18.6132 15.6C16.817 16.3948 14.6439 16.408 12.8472 15.6C11.3085 14.9082 10.4877 13.5548 8.88262 12.9692C6.66771 12.1612 4.9175 12.6421 3.00647 13.8238C2.86289 13.9126 2.63993 13.8935 2.65508 14.1012L2.65821 25.8139C2.56892 26.4407 2.1392 26.8196 1.56433 27.0004H1.09545Z" fill="white"/>
</g>
<defs>
<clipPath id="clip0_23_471">
<rect width="20" height="27" fill="white"/>
</clipPath>
</defs>
</svg>
