<svg width="316" height="283" viewBox="0 0 316 283" fill="none" xmlns="http://www.w3.org/2000/svg">
<circle cx="108.5" cy="275.5" r="7.5" fill="#12F280"/>
<path d="M316 69.938L309.255 71.7536C300.821 74.5981 300.354 80.064 298.502 88.0909C297.281 83.1633 296.736 77.21 292.379 73.9992C289.055 71.5498 284.859 71.0752 281 70.0909C286.03 68.6607 292.236 68.1097 295.194 63.026C297.12 59.7133 297.51 55.7412 298.502 52.0909C299.505 55.4832 299.867 59.21 301.496 62.3921C304.333 67.9249 310.574 68.7818 315.997 69.9348L316 69.938Z" fill="#12F280"/>
<path d="M313.849 57.607C313.945 58.4381 313.813 58.0921 313.392 58.2249C311.413 58.8552 310.523 59.2476 310.471 61.6203C309.605 60.9715 309.74 59.5627 308.792 58.8336C308.154 58.3423 307.261 58.2249 306.481 58.2218C306.257 57.2826 307.497 57.6256 308.194 57.3197C309.796 56.6153 309.532 55.4845 310.32 54.2086C310.597 56.2415 311.664 57.6874 313.849 57.607Z" fill="#12F280"/>
<path d="M310.475 78.5909C310.416 80.9256 311.815 81.67 313.879 82.1283C311.709 82.9404 310.583 83.451 310.323 85.9733C309.67 85.1766 309.874 84.3461 309.097 83.5002C308.191 82.5128 307.16 82.9004 306.455 81.9776C308.943 81.8515 309.24 81.1225 309.853 79.0431C309.986 78.594 309.67 78.5048 310.478 78.5909H310.475Z" fill="#12F280"/>
<path d="M290.546 81.96C289.877 82.8961 288.751 82.4883 287.898 83.4831C287.307 84.1721 287.13 85.0866 287.14 85.9733C286.212 85.2689 286.601 84.2401 285.608 83.3348C284.758 82.5594 283.923 82.7633 283.121 82.1114C285.655 81.8519 286.171 80.7273 286.988 78.5615C287.267 80.5944 288.343 82.0403 290.542 81.96H290.546Z" fill="#12F280"/>
<path d="M15.2904 89.7112C14.3793 91.234 13.2929 92.6724 12.7545 94.3927C12.8851 94.9789 17.2689 95.8773 18 96.0016L12.7418 97.5165C12.6828 97.5945 13.2388 98.9835 13.3519 99.2145C13.5446 99.6112 15.4179 102.314 15.2904 102.451C13.7389 101.496 12.1986 100.237 10.3572 99.9042L9.00159 105L7.4708 99.9154C6.95628 99.5442 3.40885 102.01 2.70956 102.292C2.52 102.102 5.39522 98.3464 5.08619 97.5308L0 96C0.727965 95.8471 4.92372 95.0283 5.07504 94.3912C5.23434 93.7205 2.95805 90.4694 2.54708 89.7096C2.68566 89.5805 5.38885 91.4538 5.78389 91.6481C6.2331 91.868 6.83841 92.0973 7.33221 92.1818C7.91841 91.9078 8.56035 88.3158 8.75788 87.5575C8.81522 87.3377 8.7531 87.0621 9.07487 87C8.93628 87.7503 10.1039 92.1308 10.6057 92.2455L12.052 91.6481L15.2889 89.7096L15.2904 89.7112Z" fill="#12F280"/>
<path d="M90.2521 9.24711L86.4202 4.52815L92.0672 7.08139L90.7563 1.1822L94.6871 5.90312L96 0L97.3129 5.90312L101.244 1.1822L99.9328 7.08139L105.58 4.52815L101.748 9.24711H108L102.353 11.8062C102.093 12.1347 107.657 14.2434 107.998 14.6565L101.748 14.5582L105.376 19.2771C105.14 19.4935 100.282 16.6078 99.9328 16.9186C100.288 18.6752 100.911 20.4691 101.254 22.2178C101.294 22.4205 101.52 22.863 101.145 22.8158C100.138 21.3543 98.9445 19.6705 97.7728 18.3467C97.6861 18.2483 97.6235 17.7979 97.3129 18.0969C97.0709 18.331 96.4094 23.2663 96 24C95.5906 23.2663 94.9291 18.331 94.6871 18.0969C94.5943 18.0084 94.197 18.0556 94.2272 18.3467L90.6575 22.8158L92.0652 16.7199L86.6239 19.2751L90.2521 14.5562L84 14.6585C84.3408 14.2454 89.9052 12.1367 89.645 11.8082L84 9.24711H90.2521Z" fill="#12F280"/>
<circle cx="207.5" cy="106.5" r="4.5" fill="#12F280"/>
</svg>
