<svg width="390" height="461" viewBox="0 0 390 461" fill="none" xmlns="http://www.w3.org/2000/svg">
<mask id="mask0_52_803" style="mask-type:alpha" maskUnits="userSpaceOnUse" x="-126" y="-178" width="641" height="640">
<path d="M195.652 291C277.114 291 343.152 224.29 343.152 142C343.152 59.7096 277.114 -7 195.652 -7C114.19 -7 48.1523 59.7096 48.1523 142C48.1523 224.29 114.19 291 195.652 291Z" stroke="#004739" stroke-width="2" stroke-miterlimit="10"/>
<path d="M195.652 215C236.245 215 269.152 182.317 269.152 142C269.152 101.683 236.245 69 195.652 69C155.059 69 122.152 101.683 122.152 142C122.152 182.317 155.059 215 195.652 215Z" stroke="#004739" stroke-width="2" stroke-miterlimit="10"/>
<path d="M194.652 374C323.059 374 427.152 270.13 427.152 142C427.152 13.8699 323.059 -90 194.652 -90C66.2461 -90 -37.8477 13.8699 -37.8477 142C-37.8477 270.13 66.2461 374 194.652 374Z" stroke="#004739" stroke-width="2" stroke-miterlimit="10"/>
<path d="M194.152 461C370.331 461 513.152 318.179 513.152 142C513.152 -34.1788 370.331 -177 194.152 -177C17.9735 -177 -124.848 -34.1788 -124.848 142C-124.848 318.179 17.9735 461 194.152 461Z" stroke="#004739" stroke-width="2" stroke-miterlimit="10"/>
</mask>
<g mask="url(#mask0_52_803)">
<rect x="-1" width="390" height="421" fill="#004739"/>
</g>
</svg>
