<svg width="30" height="22" viewBox="0 0 30 22" fill="none" xmlns="http://www.w3.org/2000/svg">
<g style="mix-blend-mode:overlay" clip-path="url(#clip0_23_410)">
<path d="M26.6673 0C28.4016 0.278433 29.7661 1.56666 29.9993 3.36136V18.5605C29.7661 20.4302 28.3076 21.8482 26.4533 21.9874C18.626 21.9213 10.7757 22.1083 2.96197 21.8929C1.36496 21.5307 0.165649 20.1618 -0.000732422 18.5007L0.00978239 3.36829C0.174927 1.6895 1.69215 0.179533 3.33556 0H26.6679H26.6673ZM7.36891 5.61276C4.68083 8.40276 9.03953 12.4671 11.5142 9.48626C13.8467 6.67673 9.84175 3.04576 7.36891 5.61276ZM16.1952 7.87298C15.5847 8.4941 16.0473 9.5209 16.8848 9.54736H25.3406C26.5251 9.41759 26.5529 7.79802 25.4037 7.59959H16.7593C16.5991 7.61975 16.3077 7.75896 16.1952 7.87361V7.87298ZM9.24859 11.4504C7.17779 11.5027 5.21894 12.743 4.25035 14.5938C3.74007 15.5683 3.13144 17.1255 4.78351 17.2137C7.7691 17.0506 10.9631 17.4229 13.924 17.2137C15.3416 17.1136 15.2086 16.2008 14.7843 15.1393C13.8794 12.8747 11.6614 11.3893 9.24859 11.4498V11.4504ZM16.651 11.4466C15.6193 11.7566 15.7022 13.1821 16.7753 13.3648C17.4526 13.4801 19.9298 13.4612 20.6423 13.373C21.8843 13.2193 21.8008 11.6155 20.8192 11.4479C19.6094 11.2406 17.9116 11.5594 16.6504 11.4473L16.651 11.4466Z" fill="white"/>
</g>
<defs>
<clipPath id="clip0_23_410">
<rect width="30" height="22" fill="white"/>
</clipPath>
</defs>
</svg>
