<svg width="23" height="20" viewBox="0 0 23 20" fill="none" xmlns="http://www.w3.org/2000/svg">
<g style="mix-blend-mode:overlay" clip-path="url(#clip0_23_422)">
<path d="M2.24599 19.9998C1.23687 19.9789 0 18.953 0 17.9771V16.8062H16.3066V18.0624C16.3066 18.1346 16.4268 18.4593 16.4646 18.5515C16.79 19.3439 17.5192 19.8142 18.373 20.0002H2.24599V19.9998Z" fill="white"/>
<path d="M22.9999 3.43542V13.3147C22.9257 13.3983 22.7911 13.6129 22.6628 13.6129H21.0681V3.54167C21.0681 3.35562 21.2734 3.06459 21.4273 2.94511C22.0264 2.48082 22.7627 2.77783 22.9999 3.43499V3.43542Z" fill="white"/>
<path d="M20.1252 5.90576V17.9353C20.1252 18.4926 19.361 19.0363 18.802 19.0653C18.1547 19.099 17.25 18.6057 17.25 17.9353V15.9126H2.87524V5.90576H20.1252ZM11.311 6.81256C7.81417 6.95595 5.92151 10.8703 8.13239 13.4627C10.0584 15.7214 13.8536 15.4154 15.297 12.8474C16.8697 10.0502 14.6539 6.67558 11.311 6.81256Z" fill="white"/>
<path d="M9.119 1.81753H10.5566V2.98848C10.5566 3.22148 10.9405 3.70069 11.1435 3.83725C11.5491 4.11036 12.5091 4.29556 12.4457 3.5842C12.3894 2.9552 11.5725 3.43911 11.4987 2.69148C11.4586 2.28907 11.4586 1.29735 11.5774 0.932068C11.9245 -0.132197 13.4485 -0.326787 14.1254 0.58471C14.1907 0.673043 14.3752 1.07033 14.3752 1.15696V1.81711H15.8129V2.94538C15.8129 3.18179 16.1338 3.62388 16.3305 3.77452C16.7144 4.06896 17.7384 4.325 17.7384 3.62644C17.7384 2.9872 16.8431 3.42588 16.7563 2.68977C16.7113 2.30827 16.7225 1.36691 16.8238 1.0076C17.1105 -0.0114327 18.4738 -0.343002 19.2516 0.410177C19.3578 0.513019 19.6315 0.947004 19.6315 1.07204V1.81711H21.7429L21.3527 1.93702C20.8274 2.07656 20.1257 2.86345 20.1257 3.37169V5.01118H2.87524V3.37169C2.87524 2.7525 3.86186 1.81753 4.51495 1.81753H5.25626V2.81822C5.25626 3.38278 5.89945 4.01776 6.49133 4.07451C6.95178 4.11846 7.38973 3.85517 7.11697 3.39686C6.92297 3.07127 6.33875 3.29018 6.25548 2.85107C6.19697 2.54298 6.20687 1.48682 6.24468 1.15738C6.3374 0.349581 7.23804 -0.153961 8.04192 0.0504431C8.89485 0.267222 9.19417 1.0443 9.1199 1.81796L9.119 1.81753ZM8.13104 1.81753V1.20005C8.13104 1.12708 7.92084 0.952124 7.82947 0.932495C7.19708 0.795088 7.13362 1.36819 7.18763 1.81753H8.13104ZM13.4318 1.81753C13.4584 1.4386 13.4453 0.904331 12.9147 0.919693C12.4227 0.933775 12.4196 1.46548 12.4434 1.81753H13.4318ZM17.7442 1.20005C17.7064 1.36691 17.7717 1.63617 17.7442 1.81753H18.6876C18.6759 1.5696 18.7578 1.17872 18.5193 1.00717C18.2807 0.835627 17.8086 0.917133 17.7442 1.20005Z" fill="white"/>
<path d="M11.0408 7.74806C14.4705 7.38235 16.2273 11.3851 13.5879 13.3988C11.2109 15.2129 7.67451 13.2136 8.18853 10.3669C8.42753 9.04276 9.61399 7.89998 11.0408 7.74806ZM11.8442 8.30409C11.5616 8.03696 11.1173 8.19399 11.025 8.5422C11.0012 8.63139 11.0228 8.79952 10.9989 8.83708C10.9899 8.85116 10.7671 8.94077 10.6956 8.99625C9.86874 9.63976 10.0245 10.6242 10.9026 11.1346C11.1691 11.2895 12.1197 11.5315 11.8541 11.9684C11.585 12.4105 11.0282 11.8037 10.714 11.8037C10.3211 11.8037 10.1064 12.1929 10.3116 12.504C10.4525 12.7169 10.9368 12.8547 10.9841 12.9311C11.039 13.0199 10.9931 13.2439 11.1025 13.415C11.2636 13.6672 11.6655 13.6967 11.8604 13.465C12.0094 13.2879 11.9504 13.0805 12.0162 12.9738C12.049 12.9209 12.2322 12.8757 12.3056 12.8223C13.1666 12.1989 12.942 11.1649 12.0801 10.6567C11.81 10.4975 10.8977 10.2969 11.1466 9.84971C11.3955 9.40249 11.9738 9.99736 12.2858 9.99736C12.7188 9.99736 12.9092 9.52198 12.6418 9.22967C12.5212 9.09781 12.0202 8.90919 12.0009 8.87932C11.9486 8.79782 12.0472 8.49655 11.8438 8.30409H11.8442Z" fill="white"/>
</g>
<defs>
<clipPath id="clip0_23_422">
<rect width="23" height="20" fill="white"/>
</clipPath>
</defs>
</svg>
