<svg width="33" height="33" viewBox="0 0 33 33" fill="none" xmlns="http://www.w3.org/2000/svg">
<g style="mix-blend-mode:overlay" clip-path="url(#clip0_23_475)">
<path d="M24.216 5.72549C24.2733 5.84835 24.3648 5.9443 24.4288 6.06493C26.1948 9.38784 27.4732 13.1934 29.1987 16.5617C29.3045 16.8924 29.3414 17.1089 29.0161 17.3301L8.80925 26.5146C8.41257 26.6182 8.2707 26.424 8.0953 26.1158L3.33905 15.6508L3.22324 15.2672L3.32612 14.9929L23.9416 5.62261L24.216 5.72549ZM25.8385 15.2608C25.7544 15.2497 25.7025 15.2793 25.6293 15.3005C25.2681 15.4042 23.1787 16.3467 22.8977 16.5485C22.3752 16.9235 22.6798 17.6323 23.2917 17.4982L26.1214 16.2158C26.548 15.9015 26.3342 15.3266 25.8387 15.2604L25.8385 15.2608ZM16.0649 12.6947C15.2739 12.4817 14.4691 12.732 14.0042 13.417C12.9692 14.9414 13.8676 17.555 15.1231 18.7123C17.066 20.5035 19.1309 19.3909 18.9726 16.8109C18.8754 15.2287 17.6739 13.1278 16.0649 12.6947ZM6.21966 16.6354C6.3163 16.818 6.62928 16.9641 6.83023 16.9046C7.64467 16.4421 8.79092 16.1479 9.56615 15.666C10.1729 15.2892 9.86094 14.5442 9.23251 14.6821C8.97237 14.7391 6.67298 15.7847 6.43304 15.948C6.21074 16.0992 6.08479 16.3822 6.21949 16.6359L6.21966 16.6354Z" fill="white"/>
<path d="M4.42309 12.0676L4.8342 11.8462L7.51949 11.8737L4.39937 13.3093C4.30227 13.2938 4.3507 13.2692 4.34252 13.2227C4.29266 12.9392 4.39634 12.6265 4.31975 12.3418L4.42263 12.0674L4.42309 12.0676Z" fill="white"/>
<path d="M14.4281 25.1526L19.9526 22.585C20.024 22.839 20.1259 23.0715 20.4193 23.1126L23.4698 23.1052C23.9002 22.8769 23.8979 22.3369 23.46 22.1241C22.7803 22.0197 22.0274 22.1552 21.3549 22.0817C21.3033 22.0759 21.1856 22.0986 21.1788 22.0277L26.3788 19.7013L26.3496 24.7201C26.2708 25.3802 25.3962 25.2037 24.8996 25.2086C21.4106 25.2417 17.9168 25.1064 14.4279 25.1531L14.4281 25.1526Z" fill="white"/>
<path d="M4.2749 20.25L6.42008 25.0958L4.62393 25.0711C4.4539 25.0355 4.33236 24.8985 4.25325 24.7529L4.2749 20.25Z" fill="white"/>
</g>
<defs>
<clipPath id="clip0_23_475">
<rect width="25" height="25" fill="white" transform="translate(8.94873) rotate(20.557)"/>
</clipPath>
</defs>
</svg>
