<svg width="72" height="13" viewBox="0 0 72 13" fill="none" xmlns="http://www.w3.org/2000/svg">
<path d="M6.5 0L8.21927 3.81565L12.6819 4.1459L9.28184 6.83435L10.3206 10.8541L6.5 8.7L2.6794 10.8541L3.71816 6.83435L0.318133 4.1459L4.78073 3.81565L6.5 0Z" fill="#FFE500"/>
<path d="M36 0L37.587 4.13363L41.7063 4.49139L38.5679 7.40387L39.5267 11.7586L36 9.425L32.4733 11.7586L33.4321 7.40387L30.2937 4.49139L34.413 4.13363L36 0Z" fill="#FFE500"/>
<path d="M21.5 0L23.2193 3.81565L27.6819 4.1459L24.2818 6.83435L25.3206 10.8541L21.5 8.7L17.6794 10.8541L18.7182 6.83435L15.3181 4.1459L19.7807 3.81565L21.5 0Z" fill="#FFE500"/>
<path d="M50.5 0L52.2193 3.81565L56.6819 4.1459L53.2818 6.83435L54.3206 10.8541L50.5 8.7L46.6794 10.8541L47.7182 6.83435L44.3181 4.1459L48.7807 3.81565L50.5 0Z" fill="#FFE500"/>
<path d="M65.5 0L67.2193 3.81565L71.6819 4.1459L68.2818 6.83435L69.3206 10.8541L65.5 8.7L61.6794 10.8541L62.7182 6.83435L59.3181 4.1459L63.7807 3.81565L65.5 0Z" fill="#FFE500"/>
</svg>
