<svg width="32" height="27" viewBox="0 0 32 27" fill="none" xmlns="http://www.w3.org/2000/svg">
<g clip-path="url(#clip0_1_650)">
<path d="M13.5562 20.5501C13.5562 24.2288 10.6961 27 6.77808 27C2.86012 27 0 24.2288 0 20.5501C0 19.7304 0.156719 18.901 0.382002 18.2277L6.39608 0H14.2222C11.1368 9.22118 10.1573 11.846 4.66238 11.846V14.1684H6.76829C10.6765 14.1684 13.5464 16.7933 13.5464 20.5403L13.5562 20.5501ZM31.3242 20.5501C31.3242 24.2288 28.464 27 24.5461 27C20.6281 27 17.768 24.2288 17.768 20.5501C17.768 19.7304 17.9149 18.901 18.1402 18.2277L24.1739 0H32C28.9146 9.22118 27.9351 11.846 22.4402 11.846V14.1684H24.5461C28.464 14.1684 31.3242 16.7933 31.3242 20.5403V20.5501Z" fill="#CCF8E1"/>
</g>
<defs>
<clipPath id="clip0_1_650">
<rect width="32" height="27" fill="white"/>
</clipPath>
</defs>
</svg>
