<svg width="390" height="494" viewBox="0 0 390 494" fill="none" xmlns="http://www.w3.org/2000/svg">
<circle cx="251.5" cy="230.5" r="4.5" fill="#12F280"/>
<path d="M196.5 323C277.962 323 344 256.29 344 174C344 91.7096 277.962 25 196.5 25C115.038 25 49 91.7096 49 174C49 256.29 115.038 323 196.5 323Z" stroke="#12F280" stroke-opacity="0.15" stroke-width="2" stroke-miterlimit="10"/>
<path d="M196.5 247C237.093 247 270 214.317 270 174C270 133.683 237.093 101 196.5 101C155.907 101 123 133.683 123 174C123 214.317 155.907 247 196.5 247Z" stroke="#004739" stroke-opacity="0.5" stroke-width="2" stroke-miterlimit="10"/>
<path d="M195.5 406C323.906 406 428 302.13 428 174C428 45.8699 323.906 -58 195.5 -58C67.0938 -58 -37 45.8699 -37 174C-37 302.13 67.0938 406 195.5 406Z" stroke="#12F280" stroke-opacity="0.15" stroke-width="2" stroke-miterlimit="10"/>
<path d="M195 493C371.179 493 514 350.179 514 174C514 -2.17885 371.179 -145 195 -145C18.8212 -145 -124 -2.17885 -124 174C-124 350.179 18.8212 493 195 493Z" stroke="#12F280" stroke-opacity="0.15" stroke-width="2" stroke-miterlimit="10"/>
<circle cx="127.5" cy="239.5" r="7.5" fill="#12F280"/>
<path d="M360 173.938L353.255 175.754C344.821 178.598 344.354 184.064 342.502 192.091C341.281 187.163 340.736 181.21 336.379 177.999C333.055 175.55 328.859 175.075 325 174.091C330.03 172.661 336.236 172.11 339.194 167.026C341.12 163.713 341.51 159.741 342.502 156.091C343.505 159.483 343.867 163.21 345.496 166.392C348.333 171.925 354.574 172.782 359.997 173.935L360 173.938Z" fill="#12F280"/>
<path d="M357.85 161.607C357.945 162.438 357.813 162.092 357.393 162.225C355.413 162.855 354.523 163.248 354.471 165.62C353.606 164.972 353.741 163.563 352.793 162.834C352.154 162.342 351.261 162.225 350.482 162.222C350.258 161.283 351.498 161.626 352.194 161.32C353.796 160.615 353.532 159.485 354.321 158.209C354.597 160.241 355.665 161.687 357.85 161.607Z" fill="#12F280"/>
<path d="M354.475 182.591C354.416 184.926 355.815 185.67 357.879 186.128C355.71 186.94 354.583 187.451 354.323 189.973C353.67 189.177 353.875 188.346 353.098 187.5C352.191 186.513 351.161 186.9 350.455 185.978C352.943 185.851 353.24 185.122 353.853 183.043C353.986 182.594 353.67 182.505 354.478 182.591H354.475Z" fill="#12F280"/>
<path d="M334.545 185.96C333.877 186.896 332.751 186.488 331.897 187.483C331.307 188.172 331.13 189.087 331.139 189.973C330.211 189.269 330.601 188.24 329.608 187.335C328.758 186.559 327.922 186.763 327.121 186.111C329.655 185.852 330.171 184.727 330.988 182.562C331.266 184.594 332.343 186.04 334.542 185.96H334.545Z" fill="#12F280"/>
<path d="M59.2904 193.711C58.3793 195.234 57.2929 196.672 56.7545 198.393C56.8851 198.979 61.2689 199.877 62 200.002L56.7418 201.516C56.6828 201.595 57.2388 202.984 57.3519 203.215C57.5446 203.611 59.4179 206.314 59.2904 206.451C57.7389 205.496 56.1986 204.237 54.3572 203.904L53.0016 209L51.4708 203.915C50.9563 203.544 47.4088 206.01 46.7096 206.292C46.52 206.102 49.3952 202.346 49.0862 201.531L44 200C44.728 199.847 48.9237 199.028 49.075 198.391C49.2343 197.721 46.9581 194.469 46.5471 193.71C46.6857 193.581 49.3889 195.454 49.7839 195.648C50.2331 195.868 50.8384 196.097 51.3322 196.182C51.9184 195.908 52.5604 192.316 52.7579 191.558C52.8152 191.338 52.7531 191.062 53.0749 191C52.9363 191.75 54.1039 196.131 54.6057 196.245L56.052 195.648L59.2889 193.71L59.2904 193.711Z" fill="#12F280"/>
<path d="M134.252 103.247L130.42 98.5282L136.067 101.081L134.756 95.1822L138.687 99.9031L140 94L141.313 99.9031L145.244 95.1822L143.933 101.081L149.58 98.5282L145.748 103.247H152L146.353 105.806C146.093 106.135 151.657 108.243 151.998 108.657L145.748 108.558L149.376 113.277C149.14 113.493 144.282 110.608 143.933 110.919C144.288 112.675 144.911 114.469 145.254 116.218C145.294 116.42 145.52 116.863 145.145 116.816C144.138 115.354 142.945 113.671 141.773 112.347C141.686 112.248 141.624 111.798 141.313 112.097C141.071 112.331 140.409 117.266 140 118C139.591 117.266 138.929 112.331 138.687 112.097C138.594 112.008 138.197 112.056 138.227 112.347L134.657 116.816L136.065 110.72L130.624 113.275L134.252 108.556L128 108.658C128.341 108.245 133.905 106.137 133.645 105.808L128 103.247H134.252Z" fill="#12F280"/>
</svg>
