<svg width="14" height="18" viewBox="0 0 14 18" fill="none" xmlns="http://www.w3.org/2000/svg">
<path d="M4.19233 17.9962C3.59738 17.9107 3.13762 17.339 3.24496 16.7439L5.90984 10.5608H0.832752C0.784143 10.5608 0.491478 10.4067 0.428691 10.3625C-0.0416999 10.0259 -0.136386 9.3637 0.201344 8.90085C3.2318 5.9786 6.16858 2.94051 9.25928 0.0923357C10.0304 -0.237275 10.8381 0.360797 10.7611 1.16966L8.99143 7.38852H13.0072C13.1186 7.38852 13.4827 7.54065 13.585 7.61472C14.0528 7.95328 14.1308 8.64581 13.79 9.09822C10.7697 12.014 7.839 15.0367 4.76044 17.8844L4.44499 17.9962C4.36347 17.9888 4.2703 18.0077 4.19233 17.9962Z" fill="#004739"/>
</svg>
